<mxfile host="app.diagrams.net" agent="Mozilla/5.0 (Windows NT 10.0; Win64; x64) AppleWebKit/537.36 (KHTML, like Gecko) Chrome/139.0.0.0 Safari/537.36 Edg/139.0.0.0" version="28.1.0">
  <diagram name="第 1 页" id="3mTbpj7_Gkx0xlmwbdlU">
    <mxGraphModel dx="1706" dy="889" grid="1" gridSize="10" guides="1" tooltips="1" connect="1" arrows="1" fold="1" page="1" pageScale="1" pageWidth="3300" pageHeight="4681" math="0" shadow="0">
      <root>
        <mxCell id="0" />
        <mxCell id="1" parent="0" />
        <mxCell id="bPCXKUU8ZjuMoyH03GHd-6" value="&lt;span style=&quot;color: rgba(0, 0, 0, 0.85); font-family: system-ui, -apple-system, &amp;quot;Segoe UI&amp;quot;, Roboto, Ubuntu, Cantarell, &amp;quot;Noto Sans&amp;quot;, sans-serif, &amp;quot;Apple Color Emoji&amp;quot;, &amp;quot;Segoe UI Emoji&amp;quot;, &amp;quot;Segoe UI Symbol&amp;quot;, &amp;quot;Noto Color Emoji&amp;quot;, BlinkMacSystemFont, &amp;quot;Helvetica Neue&amp;quot;, Arial, &amp;quot;PingFang SC&amp;quot;, &amp;quot;PingFang TC&amp;quot;, &amp;quot;PingFang HK&amp;quot;, &amp;quot;Microsoft Yahei&amp;quot;, &amp;quot;Microsoft JhengHei&amp;quot;; font-size: 14px; font-weight: 400; text-align: left; white-space: pre; background-color: rgb(255, 255, 255);&quot;&gt;StaEvaluateController&lt;/span&gt;" style="swimlane;fontStyle=1;align=center;verticalAlign=top;childLayout=stackLayout;horizontal=1;startSize=26;horizontalStack=0;resizeParent=1;resizeParentMax=0;resizeLast=0;collapsible=1;marginBottom=0;whiteSpace=wrap;html=1;" vertex="1" parent="1">
          <mxGeometry x="450" y="90" width="490" height="420" as="geometry" />
        </mxCell>
        <mxCell id="bPCXKUU8ZjuMoyH03GHd-7" value="&lt;span style=&quot;color: rgba(0, 0, 0, 0.85); font-family: system-ui, -apple-system, &amp;quot;Segoe UI&amp;quot;, Roboto, Ubuntu, Cantarell, &amp;quot;Noto Sans&amp;quot;, sans-serif, &amp;quot;Apple Color Emoji&amp;quot;, &amp;quot;Segoe UI Emoji&amp;quot;, &amp;quot;Segoe UI Symbol&amp;quot;, &amp;quot;Noto Color Emoji&amp;quot;, BlinkMacSystemFont, &amp;quot;Helvetica Neue&amp;quot;, Arial, &amp;quot;PingFang SC&amp;quot;, &amp;quot;PingFang TC&amp;quot;, &amp;quot;PingFang HK&amp;quot;, &amp;quot;Microsoft Yahei&amp;quot;, &amp;quot;Microsoft JhengHei&amp;quot;; font-size: 14px; white-space: pre; background-color: rgb(255, 255, 255);&quot;&gt;+ staEvaluateService: StaEvaluateService&lt;/span&gt;&lt;div&gt;&lt;span style=&quot;color: rgba(0, 0, 0, 0.85); font-family: system-ui, -apple-system, &amp;quot;Segoe UI&amp;quot;, Roboto, Ubuntu, Cantarell, &amp;quot;Noto Sans&amp;quot;, sans-serif, &amp;quot;Apple Color Emoji&amp;quot;, &amp;quot;Segoe UI Emoji&amp;quot;, &amp;quot;Segoe UI Symbol&amp;quot;, &amp;quot;Noto Color Emoji&amp;quot;, BlinkMacSystemFont, &amp;quot;Helvetica Neue&amp;quot;, Arial, &amp;quot;PingFang SC&amp;quot;, &amp;quot;PingFang TC&amp;quot;, &amp;quot;PingFang HK&amp;quot;, &amp;quot;Microsoft Yahei&amp;quot;, &amp;quot;Microsoft JhengHei&amp;quot;; font-size: 14px; white-space: pre; background-color: rgb(255, 255, 255);&quot;&gt;+ staService: StaService&lt;br/&gt;+ cmsService: CmsService&lt;br/&gt;+ baseLineService: BaseLineService&lt;br/&gt;+ propertyUtil: PropertyUtil&lt;/span&gt;&lt;/div&gt;" style="text;strokeColor=none;fillColor=none;align=left;verticalAlign=top;spacingLeft=4;spacingRight=4;overflow=hidden;rotatable=0;points=[[0,0.5],[1,0.5]];portConstraint=eastwest;whiteSpace=wrap;html=1;" vertex="1" parent="bPCXKUU8ZjuMoyH03GHd-6">
          <mxGeometry y="26" width="490" height="114" as="geometry" />
        </mxCell>
        <mxCell id="bPCXKUU8ZjuMoyH03GHd-8" value="" style="line;strokeWidth=1;fillColor=none;align=left;verticalAlign=middle;spacingTop=-1;spacingLeft=3;spacingRight=3;rotatable=0;labelPosition=right;points=[];portConstraint=eastwest;strokeColor=inherit;" vertex="1" parent="bPCXKUU8ZjuMoyH03GHd-6">
          <mxGeometry y="140" width="490" height="8" as="geometry" />
        </mxCell>
        <mxCell id="bPCXKUU8ZjuMoyH03GHd-9" value="&lt;span style=&quot;color: rgba(0, 0, 0, 0.85); font-family: system-ui, -apple-system, &amp;quot;Segoe UI&amp;quot;, Roboto, Ubuntu, Cantarell, &amp;quot;Noto Sans&amp;quot;, sans-serif, &amp;quot;Apple Color Emoji&amp;quot;, &amp;quot;Segoe UI Emoji&amp;quot;, &amp;quot;Segoe UI Symbol&amp;quot;, &amp;quot;Noto Color Emoji&amp;quot;, BlinkMacSystemFont, &amp;quot;Helvetica Neue&amp;quot;, Arial, &amp;quot;PingFang SC&amp;quot;, &amp;quot;PingFang TC&amp;quot;, &amp;quot;PingFang HK&amp;quot;, &amp;quot;Microsoft Yahei&amp;quot;, &amp;quot;Microsoft JhengHei&amp;quot;; font-size: 14px; white-space: pre; background-color: rgb(255, 255, 255);&quot;&gt;+ queryPageList&lt;br&gt;+ queryById(String): Result&amp;lt;StaEvaluate&amp;gt;&lt;br&gt;+ add(@RequestBody @Validated StaEvaluate): Result&amp;lt;String&amp;gt;&lt;br&gt;+ delete(@RequestParam(&quot;id&quot;) String): Result&amp;lt;String&amp;gt;&lt;br&gt;+ deleteBatch(@RequestParam(&quot;ids&quot;) String): Result&amp;lt;String&amp;gt;&lt;br&gt;+ edit(@RequestBody @Validated StaEvaluate): Result&amp;lt;String&amp;gt;&lt;br&gt;+ fill(@RequestBody @Validated StaEvaluate): Result&amp;lt;String&amp;gt;&lt;br&gt;+ check(@RequestBody @Validated StaEvaluate): Result&amp;lt;String&amp;gt;&lt;/span&gt;&lt;div&gt;&lt;span style=&quot;color: rgba(0, 0, 0, 0.85); font-family: system-ui, -apple-system, &amp;quot;Segoe UI&amp;quot;, Roboto, Ubuntu, Cantarell, &amp;quot;Noto Sans&amp;quot;, sans-serif, &amp;quot;Apple Color Emoji&amp;quot;, &amp;quot;Segoe UI Emoji&amp;quot;, &amp;quot;Segoe UI Symbol&amp;quot;, &amp;quot;Noto Color Emoji&amp;quot;, BlinkMacSystemFont, &amp;quot;Helvetica Neue&amp;quot;, Arial, &amp;quot;PingFang SC&amp;quot;, &amp;quot;PingFang TC&amp;quot;, &amp;quot;PingFang HK&amp;quot;, &amp;quot;Microsoft Yahei&amp;quot;, &amp;quot;Microsoft JhengHei&amp;quot;; font-size: 14px; white-space: pre; background-color: rgb(255, 255, 255);&quot;&gt;+ deviceStatusStat(@RequestParam(&quot;lineId&quot;) String, @RequestParam(&quot;stationId&quot;) String): Result&amp;lt;?&amp;gt;&lt;br&gt;+ workOrderStatusStat(): Result&amp;lt;?&amp;gt;&lt;br&gt;+ deviceLineStat(): Result&amp;lt;?&amp;gt;&lt;br&gt;+ deviceTypeStat(): Result&amp;lt;?&amp;gt;&lt;br&gt;+ workOrderFault(@RequestBody TimeRangeRequest): Result&amp;lt;?&amp;gt;&lt;br&gt;+ workOrderRecoverTime(@RequestBody TimeRangeRequest): Result&amp;lt;?&amp;gt;&lt;br&gt;+ health(@RequestBody GroupRequest): Result&amp;lt;?&amp;gt;&lt;/span&gt;&lt;/div&gt;" style="text;strokeColor=none;fillColor=none;align=left;verticalAlign=top;spacingLeft=4;spacingRight=4;overflow=hidden;rotatable=0;points=[[0,0.5],[1,0.5]];portConstraint=eastwest;whiteSpace=wrap;html=1;" vertex="1" parent="bPCXKUU8ZjuMoyH03GHd-6">
          <mxGeometry y="148" width="490" height="272" as="geometry" />
        </mxCell>
        <mxCell id="bPCXKUU8ZjuMoyH03GHd-10" value="&lt;p style=&quot;margin:0px;margin-top:4px;text-align:center;&quot;&gt;&lt;i&gt;&amp;lt;&amp;lt;Interface&amp;gt;&amp;gt;&lt;/i&gt;&lt;br&gt;&lt;span style=&quot;color: rgba(0, 0, 0, 0.85); font-family: system-ui, -apple-system, &amp;quot;Segoe UI&amp;quot;, Roboto, Ubuntu, Cantarell, &amp;quot;Noto Sans&amp;quot;, sans-serif, &amp;quot;Apple Color Emoji&amp;quot;, &amp;quot;Segoe UI Emoji&amp;quot;, &amp;quot;Segoe UI Symbol&amp;quot;, &amp;quot;Noto Color Emoji&amp;quot;, BlinkMacSystemFont, &amp;quot;Helvetica Neue&amp;quot;, Arial, &amp;quot;PingFang SC&amp;quot;, &amp;quot;PingFang TC&amp;quot;, &amp;quot;PingFang HK&amp;quot;, &amp;quot;Microsoft Yahei&amp;quot;, &amp;quot;Microsoft JhengHei&amp;quot;; font-size: 14px; text-align: left; white-space: pre; background-color: rgb(255, 255, 255);&quot;&gt;StaEvaluateService&lt;/span&gt;&lt;/p&gt;&lt;hr size=&quot;1&quot; style=&quot;border-style:solid;&quot;&gt;&lt;p style=&quot;margin:0px;margin-left:4px;&quot;&gt;&lt;span style=&quot;background-color: rgb(255, 255, 255); color: rgba(0, 0, 0, 0.85);&quot;&gt;&lt;font face=&quot;system-ui, -apple-system, Segoe UI, Roboto, Ubuntu, Cantarell, Noto Sans, sans-serif, Apple Color Emoji, Segoe UI Emoji, Segoe UI Symbol, Noto Color Emoji, BlinkMacSystemFont, Helvetica Neue, Arial, PingFang SC, PingFang TC, PingFang HK, Microsoft Yahei, Microsoft JhengHei&quot; color=&quot;rgba(0, 0, 0, 0.85)&quot;&gt;&lt;span style=&quot;font-size: 14px; white-space: pre;&quot;&gt;+ workOrderFixScore&lt;br&gt;+ groupHealth&lt;/span&gt;&lt;/font&gt;&lt;br&gt;&lt;br&gt;&lt;/span&gt;&lt;/p&gt;" style="verticalAlign=top;align=left;overflow=fill;html=1;whiteSpace=wrap;" vertex="1" parent="1">
          <mxGeometry x="250" y="590" width="190" height="140" as="geometry" />
        </mxCell>
        <mxCell id="bPCXKUU8ZjuMoyH03GHd-11" value="&lt;p style=&quot;margin:0px;margin-top:4px;text-align:center;&quot;&gt;&lt;i&gt;&amp;lt;&amp;lt;Interface&amp;gt;&amp;gt;&lt;/i&gt;&lt;br&gt;&lt;span style=&quot;color: rgba(0, 0, 0, 0.85); font-family: system-ui, -apple-system, &amp;quot;Segoe UI&amp;quot;, Roboto, Ubuntu, Cantarell, &amp;quot;Noto Sans&amp;quot;, sans-serif, &amp;quot;Apple Color Emoji&amp;quot;, &amp;quot;Segoe UI Emoji&amp;quot;, &amp;quot;Segoe UI Symbol&amp;quot;, &amp;quot;Noto Color Emoji&amp;quot;, BlinkMacSystemFont, &amp;quot;Helvetica Neue&amp;quot;, Arial, &amp;quot;PingFang SC&amp;quot;, &amp;quot;PingFang TC&amp;quot;, &amp;quot;PingFang HK&amp;quot;, &amp;quot;Microsoft Yahei&amp;quot;, &amp;quot;Microsoft JhengHei&amp;quot;; font-size: 14px; text-align: left; white-space: pre; background-color: rgb(255, 255, 255);&quot;&gt;StaService&lt;/span&gt;&lt;/p&gt;&lt;hr size=&quot;1&quot; style=&quot;border-style:solid;&quot;&gt;&lt;p style=&quot;margin:0px;margin-left:4px;&quot;&gt;&amp;nbsp;&lt;font face=&quot;system-ui, -apple-system, Segoe UI, Roboto, Ubuntu, Cantarell, Noto Sans, sans-serif, Apple Color Emoji, Segoe UI Emoji, Segoe UI Symbol, Noto Color Emoji, BlinkMacSystemFont, Helvetica Neue, Arial, PingFang SC, PingFang TC, PingFang HK, Microsoft Yahei, Microsoft JhengHei&quot; color=&quot;rgba(0, 0, 0, 0.85)&quot;&gt;&lt;span style=&quot;font-size: 14px; white-space: pre;&quot;&gt;+ workOrderTypeCount&lt;br&gt;+ workOrderScoreCount&lt;br&gt;+ workOrderOnTime&lt;/span&gt;&lt;/font&gt;&lt;/p&gt;" style="verticalAlign=top;align=left;overflow=fill;html=1;whiteSpace=wrap;" vertex="1" parent="1">
          <mxGeometry x="470" y="590" width="190" height="140" as="geometry" />
        </mxCell>
        <mxCell id="bPCXKUU8ZjuMoyH03GHd-12" value="&lt;p style=&quot;margin:0px;margin-top:4px;text-align:center;&quot;&gt;&lt;i&gt;&amp;lt;&amp;lt;Interface&amp;gt;&amp;gt;&lt;/i&gt;&lt;br&gt;&lt;span style=&quot;color: rgba(0, 0, 0, 0.85); font-family: system-ui, -apple-system, &amp;quot;Segoe UI&amp;quot;, Roboto, Ubuntu, Cantarell, &amp;quot;Noto Sans&amp;quot;, sans-serif, &amp;quot;Apple Color Emoji&amp;quot;, &amp;quot;Segoe UI Emoji&amp;quot;, &amp;quot;Segoe UI Symbol&amp;quot;, &amp;quot;Noto Color Emoji&amp;quot;, BlinkMacSystemFont, &amp;quot;Helvetica Neue&amp;quot;, Arial, &amp;quot;PingFang SC&amp;quot;, &amp;quot;PingFang TC&amp;quot;, &amp;quot;PingFang HK&amp;quot;, &amp;quot;Microsoft Yahei&amp;quot;, &amp;quot;Microsoft JhengHei&amp;quot;; font-size: 14px; text-align: left; white-space: pre; background-color: rgb(255, 255, 255);&quot;&gt;CmsService&lt;/span&gt;&lt;/p&gt;&lt;hr size=&quot;1&quot; style=&quot;border-style:solid;&quot;&gt;&lt;p style=&quot;margin:0px;margin-left:4px;&quot;&gt;&amp;nbsp;&lt;font face=&quot;system-ui, -apple-system, Segoe UI, Roboto, Ubuntu, Cantarell, Noto Sans, sans-serif, Apple Color Emoji, Segoe UI Emoji, Segoe UI Symbol, Noto Color Emoji, BlinkMacSystemFont, Helvetica Neue, Arial, PingFang SC, PingFang TC, PingFang HK, Microsoft Yahei, Microsoft JhengHei&quot; color=&quot;rgba(0, 0, 0, 0.85)&quot;&gt;&lt;span style=&quot;font-size: 14px; white-space: pre;&quot;&gt;+ workOrderStatusStat&lt;br&gt;+ deviceTypeStat&lt;br&gt;+ workOrderFault&lt;/span&gt;&lt;/font&gt;&lt;/p&gt;" style="verticalAlign=top;align=left;overflow=fill;html=1;whiteSpace=wrap;" vertex="1" parent="1">
          <mxGeometry x="680" y="590" width="190" height="140" as="geometry" />
        </mxCell>
        <mxCell id="bPCXKUU8ZjuMoyH03GHd-13" value="&lt;p style=&quot;margin:0px;margin-top:4px;text-align:center;&quot;&gt;&lt;i&gt;&amp;lt;&amp;lt;Interface&amp;gt;&amp;gt;&lt;/i&gt;&lt;br&gt;&lt;span style=&quot;color: rgba(0, 0, 0, 0.85); font-family: system-ui, -apple-system, &amp;quot;Segoe UI&amp;quot;, Roboto, Ubuntu, Cantarell, &amp;quot;Noto Sans&amp;quot;, sans-serif, &amp;quot;Apple Color Emoji&amp;quot;, &amp;quot;Segoe UI Emoji&amp;quot;, &amp;quot;Segoe UI Symbol&amp;quot;, &amp;quot;Noto Color Emoji&amp;quot;, BlinkMacSystemFont, &amp;quot;Helvetica Neue&amp;quot;, Arial, &amp;quot;PingFang SC&amp;quot;, &amp;quot;PingFang TC&amp;quot;, &amp;quot;PingFang HK&amp;quot;, &amp;quot;Microsoft Yahei&amp;quot;, &amp;quot;Microsoft JhengHei&amp;quot;; font-size: 14px; text-align: left; white-space: pre; background-color: rgb(255, 255, 255);&quot;&gt;BaseLineService&lt;/span&gt;&lt;/p&gt;&lt;hr size=&quot;1&quot; style=&quot;border-style:solid;&quot;&gt;&lt;p style=&quot;margin:0px;margin-left:4px;&quot;&gt;&lt;span style=&quot;color: rgba(0, 0, 0, 0.85); font-family: system-ui, -apple-system, &amp;quot;Segoe UI&amp;quot;, Roboto, Ubuntu, Cantarell, &amp;quot;Noto Sans&amp;quot;, sans-serif, &amp;quot;Apple Color Emoji&amp;quot;, &amp;quot;Segoe UI Emoji&amp;quot;, &amp;quot;Segoe UI Symbol&amp;quot;, &amp;quot;Noto Color Emoji&amp;quot;, BlinkMacSystemFont, &amp;quot;Helvetica Neue&amp;quot;, Arial, &amp;quot;PingFang SC&amp;quot;, &amp;quot;PingFang TC&amp;quot;, &amp;quot;PingFang HK&amp;quot;, &amp;quot;Microsoft Yahei&amp;quot;, &amp;quot;Microsoft JhengHei&amp;quot;; font-size: 14px; white-space: pre; background-color: rgb(255, 255, 255);&quot;&gt;+ workOrderOnTime&lt;/span&gt;&lt;br style=&quot;color: rgba(0, 0, 0, 0.85); font-family: system-ui, -apple-system, &amp;quot;Segoe UI&amp;quot;, Roboto, Ubuntu, Cantarell, &amp;quot;Noto Sans&amp;quot;, sans-serif, &amp;quot;Apple Color Emoji&amp;quot;, &amp;quot;Segoe UI Emoji&amp;quot;, &amp;quot;Segoe UI Symbol&amp;quot;, &amp;quot;Noto Color Emoji&amp;quot;, BlinkMacSystemFont, &amp;quot;Helvetica Neue&amp;quot;, Arial, &amp;quot;PingFang SC&amp;quot;, &amp;quot;PingFang TC&amp;quot;, &amp;quot;PingFang HK&amp;quot;, &amp;quot;Microsoft Yahei&amp;quot;, &amp;quot;Microsoft JhengHei&amp;quot;; font-size: 14px; white-space: pre;&quot;&gt;&lt;span style=&quot;color: rgba(0, 0, 0, 0.85); font-family: system-ui, -apple-system, &amp;quot;Segoe UI&amp;quot;, Roboto, Ubuntu, Cantarell, &amp;quot;Noto Sans&amp;quot;, sans-serif, &amp;quot;Apple Color Emoji&amp;quot;, &amp;quot;Segoe UI Emoji&amp;quot;, &amp;quot;Segoe UI Symbol&amp;quot;, &amp;quot;Noto Color Emoji&amp;quot;, BlinkMacSystemFont, &amp;quot;Helvetica Neue&amp;quot;, Arial, &amp;quot;PingFang SC&amp;quot;, &amp;quot;PingFang TC&amp;quot;, &amp;quot;PingFang HK&amp;quot;, &amp;quot;Microsoft Yahei&amp;quot;, &amp;quot;Microsoft JhengHei&amp;quot;; font-size: 14px; white-space: pre; background-color: rgb(255, 255, 255);&quot;&gt;+ workOrderFixScore&lt;/span&gt;&lt;br style=&quot;color: rgba(0, 0, 0, 0.85); font-family: system-ui, -apple-system, &amp;quot;Segoe UI&amp;quot;, Roboto, Ubuntu, Cantarell, &amp;quot;Noto Sans&amp;quot;, sans-serif, &amp;quot;Apple Color Emoji&amp;quot;, &amp;quot;Segoe UI Emoji&amp;quot;, &amp;quot;Segoe UI Symbol&amp;quot;, &amp;quot;Noto Color Emoji&amp;quot;, BlinkMacSystemFont, &amp;quot;Helvetica Neue&amp;quot;, Arial, &amp;quot;PingFang SC&amp;quot;, &amp;quot;PingFang TC&amp;quot;, &amp;quot;PingFang HK&amp;quot;, &amp;quot;Microsoft Yahei&amp;quot;, &amp;quot;Microsoft JhengHei&amp;quot;; font-size: 14px; white-space: pre;&quot;&gt;&lt;span style=&quot;color: rgba(0, 0, 0, 0.85); font-family: system-ui, -apple-system, &amp;quot;Segoe UI&amp;quot;, Roboto, Ubuntu, Cantarell, &amp;quot;Noto Sans&amp;quot;, sans-serif, &amp;quot;Apple Color Emoji&amp;quot;, &amp;quot;Segoe UI Emoji&amp;quot;, &amp;quot;Segoe UI Symbol&amp;quot;, &amp;quot;Noto Color Emoji&amp;quot;, BlinkMacSystemFont, &amp;quot;Helvetica Neue&amp;quot;, Arial, &amp;quot;PingFang SC&amp;quot;, &amp;quot;PingFang TC&amp;quot;, &amp;quot;PingFang HK&amp;quot;, &amp;quot;Microsoft Yahei&amp;quot;, &amp;quot;Microsoft JhengHei&amp;quot;; font-size: 14px; white-space: pre; background-color: rgb(255, 255, 255);&quot;&gt;+ groupHealth&lt;/span&gt;&lt;/p&gt;" style="verticalAlign=top;align=left;overflow=fill;html=1;whiteSpace=wrap;" vertex="1" parent="1">
          <mxGeometry x="890" y="590" width="190" height="140" as="geometry" />
        </mxCell>
        <mxCell id="bPCXKUU8ZjuMoyH03GHd-16" value="" style="endArrow=classic;html=1;rounded=0;entryX=0.5;entryY=0;entryDx=0;entryDy=0;exitX=0.49;exitY=1.007;exitDx=0;exitDy=0;exitPerimeter=0;" edge="1" parent="1" source="bPCXKUU8ZjuMoyH03GHd-9" target="bPCXKUU8ZjuMoyH03GHd-10">
          <mxGeometry relative="1" as="geometry">
            <mxPoint x="650" y="480" as="sourcePoint" />
            <mxPoint x="810" y="480" as="targetPoint" />
          </mxGeometry>
        </mxCell>
        <mxCell id="bPCXKUU8ZjuMoyH03GHd-17" value="use" style="edgeLabel;resizable=0;html=1;;align=center;verticalAlign=middle;" connectable="0" vertex="1" parent="bPCXKUU8ZjuMoyH03GHd-16">
          <mxGeometry relative="1" as="geometry" />
        </mxCell>
        <mxCell id="bPCXKUU8ZjuMoyH03GHd-21" value="" style="endArrow=classic;html=1;rounded=0;entryX=0.5;entryY=0;entryDx=0;entryDy=0;" edge="1" parent="1" target="bPCXKUU8ZjuMoyH03GHd-11">
          <mxGeometry relative="1" as="geometry">
            <mxPoint x="690" y="510" as="sourcePoint" />
            <mxPoint x="670" y="618" as="targetPoint" />
          </mxGeometry>
        </mxCell>
        <mxCell id="bPCXKUU8ZjuMoyH03GHd-22" value="use" style="edgeLabel;resizable=0;html=1;;align=center;verticalAlign=middle;" connectable="0" vertex="1" parent="bPCXKUU8ZjuMoyH03GHd-21">
          <mxGeometry relative="1" as="geometry" />
        </mxCell>
        <mxCell id="bPCXKUU8ZjuMoyH03GHd-23" value="" style="endArrow=classic;html=1;rounded=0;entryX=0.5;entryY=0;entryDx=0;entryDy=0;" edge="1" parent="1" target="bPCXKUU8ZjuMoyH03GHd-12">
          <mxGeometry relative="1" as="geometry">
            <mxPoint x="690" y="510" as="sourcePoint" />
            <mxPoint x="810" y="628" as="targetPoint" />
          </mxGeometry>
        </mxCell>
        <mxCell id="bPCXKUU8ZjuMoyH03GHd-24" value="use" style="edgeLabel;resizable=0;html=1;;align=center;verticalAlign=middle;" connectable="0" vertex="1" parent="bPCXKUU8ZjuMoyH03GHd-23">
          <mxGeometry relative="1" as="geometry" />
        </mxCell>
        <mxCell id="bPCXKUU8ZjuMoyH03GHd-25" value="" style="endArrow=classic;html=1;rounded=0;entryX=0.5;entryY=0;entryDx=0;entryDy=0;exitX=0.488;exitY=1.004;exitDx=0;exitDy=0;exitPerimeter=0;" edge="1" parent="1" source="bPCXKUU8ZjuMoyH03GHd-9" target="bPCXKUU8ZjuMoyH03GHd-13">
          <mxGeometry relative="1" as="geometry">
            <mxPoint x="1405" y="550" as="sourcePoint" />
            <mxPoint x="1060" y="628" as="targetPoint" />
          </mxGeometry>
        </mxCell>
        <mxCell id="bPCXKUU8ZjuMoyH03GHd-26" value="use" style="edgeLabel;resizable=0;html=1;;align=center;verticalAlign=middle;" connectable="0" vertex="1" parent="bPCXKUU8ZjuMoyH03GHd-25">
          <mxGeometry relative="1" as="geometry" />
        </mxCell>
        <mxCell id="bPCXKUU8ZjuMoyH03GHd-51" style="edgeStyle=orthogonalEdgeStyle;rounded=0;orthogonalLoop=1;jettySize=auto;html=1;exitX=0.5;exitY=0;exitDx=0;exitDy=0;entryX=0.5;entryY=1;entryDx=0;entryDy=0;" edge="1" parent="1" source="bPCXKUU8ZjuMoyH03GHd-31" target="bPCXKUU8ZjuMoyH03GHd-10">
          <mxGeometry relative="1" as="geometry" />
        </mxCell>
        <mxCell id="bPCXKUU8ZjuMoyH03GHd-31" value="&lt;p style=&quot;margin:0px;margin-top:4px;text-align:center;&quot;&gt;&lt;span style=&quot;color: rgba(0, 0, 0, 0.85); font-family: system-ui, -apple-system, &amp;quot;Segoe UI&amp;quot;, Roboto, Ubuntu, Cantarell, &amp;quot;Noto Sans&amp;quot;, sans-serif, &amp;quot;Apple Color Emoji&amp;quot;, &amp;quot;Segoe UI Emoji&amp;quot;, &amp;quot;Segoe UI Symbol&amp;quot;, &amp;quot;Noto Color Emoji&amp;quot;, BlinkMacSystemFont, &amp;quot;Helvetica Neue&amp;quot;, Arial, &amp;quot;PingFang SC&amp;quot;, &amp;quot;PingFang TC&amp;quot;, &amp;quot;PingFang HK&amp;quot;, &amp;quot;Microsoft Yahei&amp;quot;, &amp;quot;Microsoft JhengHei&amp;quot;; font-size: 14px; text-align: left; white-space: pre; background-color: rgb(255, 255, 255);&quot;&gt;StaEvaluateServiceImpl&lt;/span&gt;&lt;/p&gt;&lt;hr size=&quot;1&quot; style=&quot;border-style:solid;&quot;&gt;&lt;p style=&quot;margin:0px;margin-left:4px;&quot;&gt;&lt;span style=&quot;background-color: rgb(255, 255, 255); color: rgba(0, 0, 0, 0.85);&quot;&gt;&lt;font face=&quot;system-ui, -apple-system, Segoe UI, Roboto, Ubuntu, Cantarell, Noto Sans, sans-serif, Apple Color Emoji, Segoe UI Emoji, Segoe UI Symbol, Noto Color Emoji, BlinkMacSystemFont, Helvetica Neue, Arial, PingFang SC, PingFang TC, PingFang HK, Microsoft Yahei, Microsoft JhengHei&quot; color=&quot;rgba(0, 0, 0, 0.85)&quot;&gt;&lt;span style=&quot;font-size: 14px; white-space: pre;&quot;&gt;+ workOrderFixScore&lt;br&gt;+ groupHealth&lt;/span&gt;&lt;/font&gt;&lt;br&gt;&lt;br&gt;&lt;/span&gt;&lt;/p&gt;" style="verticalAlign=top;align=left;overflow=fill;html=1;whiteSpace=wrap;" vertex="1" parent="1">
          <mxGeometry x="250" y="770" width="190" height="140" as="geometry" />
        </mxCell>
        <mxCell id="bPCXKUU8ZjuMoyH03GHd-53" style="edgeStyle=orthogonalEdgeStyle;rounded=0;orthogonalLoop=1;jettySize=auto;html=1;exitX=0.5;exitY=0;exitDx=0;exitDy=0;entryX=0.5;entryY=1;entryDx=0;entryDy=0;" edge="1" parent="1" source="bPCXKUU8ZjuMoyH03GHd-32" target="bPCXKUU8ZjuMoyH03GHd-11">
          <mxGeometry relative="1" as="geometry" />
        </mxCell>
        <mxCell id="bPCXKUU8ZjuMoyH03GHd-32" value="&lt;p style=&quot;margin:0px;margin-top:4px;text-align:center;&quot;&gt;&lt;span style=&quot;color: rgba(0, 0, 0, 0.85); font-family: system-ui, -apple-system, &amp;quot;Segoe UI&amp;quot;, Roboto, Ubuntu, Cantarell, &amp;quot;Noto Sans&amp;quot;, sans-serif, &amp;quot;Apple Color Emoji&amp;quot;, &amp;quot;Segoe UI Emoji&amp;quot;, &amp;quot;Segoe UI Symbol&amp;quot;, &amp;quot;Noto Color Emoji&amp;quot;, BlinkMacSystemFont, &amp;quot;Helvetica Neue&amp;quot;, Arial, &amp;quot;PingFang SC&amp;quot;, &amp;quot;PingFang TC&amp;quot;, &amp;quot;PingFang HK&amp;quot;, &amp;quot;Microsoft Yahei&amp;quot;, &amp;quot;Microsoft JhengHei&amp;quot;; font-size: 14px; text-align: left; white-space: pre; background-color: rgb(255, 255, 255);&quot;&gt;StaService&lt;/span&gt;&lt;span style=&quot;background-color: rgb(255, 255, 255); color: rgba(0, 0, 0, 0.85); font-family: system-ui, -apple-system, &amp;quot;Segoe UI&amp;quot;, Roboto, Ubuntu, Cantarell, &amp;quot;Noto Sans&amp;quot;, sans-serif, &amp;quot;Apple Color Emoji&amp;quot;, &amp;quot;Segoe UI Emoji&amp;quot;, &amp;quot;Segoe UI Symbol&amp;quot;, &amp;quot;Noto Color Emoji&amp;quot;, BlinkMacSystemFont, &amp;quot;Helvetica Neue&amp;quot;, Arial, &amp;quot;PingFang SC&amp;quot;, &amp;quot;PingFang TC&amp;quot;, &amp;quot;PingFang HK&amp;quot;, &amp;quot;Microsoft Yahei&amp;quot;, &amp;quot;Microsoft JhengHei&amp;quot;; font-size: 14px; white-space: pre; text-align: left;&quot;&gt;Impl&lt;/span&gt;&lt;/p&gt;&lt;hr size=&quot;1&quot; style=&quot;border-style:solid;&quot;&gt;&lt;p style=&quot;margin:0px;margin-left:4px;&quot;&gt;&amp;nbsp;&lt;font face=&quot;system-ui, -apple-system, Segoe UI, Roboto, Ubuntu, Cantarell, Noto Sans, sans-serif, Apple Color Emoji, Segoe UI Emoji, Segoe UI Symbol, Noto Color Emoji, BlinkMacSystemFont, Helvetica Neue, Arial, PingFang SC, PingFang TC, PingFang HK, Microsoft Yahei, Microsoft JhengHei&quot; color=&quot;rgba(0, 0, 0, 0.85)&quot;&gt;&lt;span style=&quot;font-size: 14px; white-space: pre;&quot;&gt;+ workOrderTypeCount&lt;br&gt;+ workOrderScoreCount&lt;br&gt;+ workOrderOnTime&lt;/span&gt;&lt;/font&gt;&lt;/p&gt;" style="verticalAlign=top;align=left;overflow=fill;html=1;whiteSpace=wrap;" vertex="1" parent="1">
          <mxGeometry x="470" y="770" width="190" height="140" as="geometry" />
        </mxCell>
        <mxCell id="bPCXKUU8ZjuMoyH03GHd-55" style="edgeStyle=orthogonalEdgeStyle;rounded=0;orthogonalLoop=1;jettySize=auto;html=1;exitX=0.5;exitY=0;exitDx=0;exitDy=0;entryX=0.5;entryY=1;entryDx=0;entryDy=0;" edge="1" parent="1" source="bPCXKUU8ZjuMoyH03GHd-33" target="bPCXKUU8ZjuMoyH03GHd-12">
          <mxGeometry relative="1" as="geometry" />
        </mxCell>
        <mxCell id="bPCXKUU8ZjuMoyH03GHd-33" value="&lt;p style=&quot;margin:0px;margin-top:4px;text-align:center;&quot;&gt;&lt;span style=&quot;color: rgba(0, 0, 0, 0.85); font-family: system-ui, -apple-system, &amp;quot;Segoe UI&amp;quot;, Roboto, Ubuntu, Cantarell, &amp;quot;Noto Sans&amp;quot;, sans-serif, &amp;quot;Apple Color Emoji&amp;quot;, &amp;quot;Segoe UI Emoji&amp;quot;, &amp;quot;Segoe UI Symbol&amp;quot;, &amp;quot;Noto Color Emoji&amp;quot;, BlinkMacSystemFont, &amp;quot;Helvetica Neue&amp;quot;, Arial, &amp;quot;PingFang SC&amp;quot;, &amp;quot;PingFang TC&amp;quot;, &amp;quot;PingFang HK&amp;quot;, &amp;quot;Microsoft Yahei&amp;quot;, &amp;quot;Microsoft JhengHei&amp;quot;; font-size: 14px; text-align: left; white-space: pre; background-color: rgb(255, 255, 255);&quot;&gt;CmsService&lt;/span&gt;&lt;span style=&quot;background-color: rgb(255, 255, 255); color: rgba(0, 0, 0, 0.85); font-family: system-ui, -apple-system, &amp;quot;Segoe UI&amp;quot;, Roboto, Ubuntu, Cantarell, &amp;quot;Noto Sans&amp;quot;, sans-serif, &amp;quot;Apple Color Emoji&amp;quot;, &amp;quot;Segoe UI Emoji&amp;quot;, &amp;quot;Segoe UI Symbol&amp;quot;, &amp;quot;Noto Color Emoji&amp;quot;, BlinkMacSystemFont, &amp;quot;Helvetica Neue&amp;quot;, Arial, &amp;quot;PingFang SC&amp;quot;, &amp;quot;PingFang TC&amp;quot;, &amp;quot;PingFang HK&amp;quot;, &amp;quot;Microsoft Yahei&amp;quot;, &amp;quot;Microsoft JhengHei&amp;quot;; font-size: 14px; white-space: pre; text-align: left;&quot;&gt;Impl&lt;/span&gt;&lt;/p&gt;&lt;hr size=&quot;1&quot; style=&quot;border-style:solid;&quot;&gt;&lt;p style=&quot;margin:0px;margin-left:4px;&quot;&gt;&lt;/p&gt;&lt;p style=&quot;margin:0px;margin-left:4px;&quot;&gt;&amp;nbsp;&lt;font face=&quot;system-ui, -apple-system, Segoe UI, Roboto, Ubuntu, Cantarell, Noto Sans, sans-serif, Apple Color Emoji, Segoe UI Emoji, Segoe UI Symbol, Noto Color Emoji, BlinkMacSystemFont, Helvetica Neue, Arial, PingFang SC, PingFang TC, PingFang HK, Microsoft Yahei, Microsoft JhengHei&quot; color=&quot;rgba(0, 0, 0, 0.85)&quot;&gt;&lt;span style=&quot;font-size: 14px; white-space: pre;&quot;&gt;+ workOrderStatusStat&lt;br&gt;+ deviceTypeStat&lt;br&gt;+ workOrderFault&lt;/span&gt;&lt;/font&gt;&lt;/p&gt;" style="verticalAlign=top;align=left;overflow=fill;html=1;whiteSpace=wrap;" vertex="1" parent="1">
          <mxGeometry x="680" y="770" width="190" height="140" as="geometry" />
        </mxCell>
        <mxCell id="bPCXKUU8ZjuMoyH03GHd-57" style="edgeStyle=orthogonalEdgeStyle;rounded=0;orthogonalLoop=1;jettySize=auto;html=1;exitX=0.5;exitY=0;exitDx=0;exitDy=0;entryX=0.5;entryY=1;entryDx=0;entryDy=0;" edge="1" parent="1" source="bPCXKUU8ZjuMoyH03GHd-34" target="bPCXKUU8ZjuMoyH03GHd-13">
          <mxGeometry relative="1" as="geometry" />
        </mxCell>
        <mxCell id="bPCXKUU8ZjuMoyH03GHd-34" value="&lt;p style=&quot;margin:0px;margin-top:4px;text-align:center;&quot;&gt;&lt;span style=&quot;color: rgba(0, 0, 0, 0.85); font-family: system-ui, -apple-system, &amp;quot;Segoe UI&amp;quot;, Roboto, Ubuntu, Cantarell, &amp;quot;Noto Sans&amp;quot;, sans-serif, &amp;quot;Apple Color Emoji&amp;quot;, &amp;quot;Segoe UI Emoji&amp;quot;, &amp;quot;Segoe UI Symbol&amp;quot;, &amp;quot;Noto Color Emoji&amp;quot;, BlinkMacSystemFont, &amp;quot;Helvetica Neue&amp;quot;, Arial, &amp;quot;PingFang SC&amp;quot;, &amp;quot;PingFang TC&amp;quot;, &amp;quot;PingFang HK&amp;quot;, &amp;quot;Microsoft Yahei&amp;quot;, &amp;quot;Microsoft JhengHei&amp;quot;; font-size: 14px; text-align: left; white-space: pre; background-color: rgb(255, 255, 255);&quot;&gt;BaseLineService&lt;/span&gt;&lt;span style=&quot;background-color: rgb(255, 255, 255); color: rgba(0, 0, 0, 0.85); font-family: system-ui, -apple-system, &amp;quot;Segoe UI&amp;quot;, Roboto, Ubuntu, Cantarell, &amp;quot;Noto Sans&amp;quot;, sans-serif, &amp;quot;Apple Color Emoji&amp;quot;, &amp;quot;Segoe UI Emoji&amp;quot;, &amp;quot;Segoe UI Symbol&amp;quot;, &amp;quot;Noto Color Emoji&amp;quot;, BlinkMacSystemFont, &amp;quot;Helvetica Neue&amp;quot;, Arial, &amp;quot;PingFang SC&amp;quot;, &amp;quot;PingFang TC&amp;quot;, &amp;quot;PingFang HK&amp;quot;, &amp;quot;Microsoft Yahei&amp;quot;, &amp;quot;Microsoft JhengHei&amp;quot;; font-size: 14px; white-space: pre; text-align: left;&quot;&gt;Impl&lt;/span&gt;&lt;/p&gt;&lt;hr size=&quot;1&quot; style=&quot;border-style:solid;&quot;&gt;&lt;p style=&quot;margin:0px;margin-left:4px;&quot;&gt;&lt;span style=&quot;color: rgba(0, 0, 0, 0.85); font-family: system-ui, -apple-system, &amp;quot;Segoe UI&amp;quot;, Roboto, Ubuntu, Cantarell, &amp;quot;Noto Sans&amp;quot;, sans-serif, &amp;quot;Apple Color Emoji&amp;quot;, &amp;quot;Segoe UI Emoji&amp;quot;, &amp;quot;Segoe UI Symbol&amp;quot;, &amp;quot;Noto Color Emoji&amp;quot;, BlinkMacSystemFont, &amp;quot;Helvetica Neue&amp;quot;, Arial, &amp;quot;PingFang SC&amp;quot;, &amp;quot;PingFang TC&amp;quot;, &amp;quot;PingFang HK&amp;quot;, &amp;quot;Microsoft Yahei&amp;quot;, &amp;quot;Microsoft JhengHei&amp;quot;; font-size: 14px; white-space: pre; background-color: rgb(255, 255, 255);&quot;&gt;+ workOrderOnTime&lt;/span&gt;&lt;br style=&quot;color: rgba(0, 0, 0, 0.85); font-family: system-ui, -apple-system, &amp;quot;Segoe UI&amp;quot;, Roboto, Ubuntu, Cantarell, &amp;quot;Noto Sans&amp;quot;, sans-serif, &amp;quot;Apple Color Emoji&amp;quot;, &amp;quot;Segoe UI Emoji&amp;quot;, &amp;quot;Segoe UI Symbol&amp;quot;, &amp;quot;Noto Color Emoji&amp;quot;, BlinkMacSystemFont, &amp;quot;Helvetica Neue&amp;quot;, Arial, &amp;quot;PingFang SC&amp;quot;, &amp;quot;PingFang TC&amp;quot;, &amp;quot;PingFang HK&amp;quot;, &amp;quot;Microsoft Yahei&amp;quot;, &amp;quot;Microsoft JhengHei&amp;quot;; font-size: 14px; white-space: pre;&quot;&gt;&lt;span style=&quot;color: rgba(0, 0, 0, 0.85); font-family: system-ui, -apple-system, &amp;quot;Segoe UI&amp;quot;, Roboto, Ubuntu, Cantarell, &amp;quot;Noto Sans&amp;quot;, sans-serif, &amp;quot;Apple Color Emoji&amp;quot;, &amp;quot;Segoe UI Emoji&amp;quot;, &amp;quot;Segoe UI Symbol&amp;quot;, &amp;quot;Noto Color Emoji&amp;quot;, BlinkMacSystemFont, &amp;quot;Helvetica Neue&amp;quot;, Arial, &amp;quot;PingFang SC&amp;quot;, &amp;quot;PingFang TC&amp;quot;, &amp;quot;PingFang HK&amp;quot;, &amp;quot;Microsoft Yahei&amp;quot;, &amp;quot;Microsoft JhengHei&amp;quot;; font-size: 14px; white-space: pre; background-color: rgb(255, 255, 255);&quot;&gt;+ workOrderFixScore&lt;/span&gt;&lt;br style=&quot;color: rgba(0, 0, 0, 0.85); font-family: system-ui, -apple-system, &amp;quot;Segoe UI&amp;quot;, Roboto, Ubuntu, Cantarell, &amp;quot;Noto Sans&amp;quot;, sans-serif, &amp;quot;Apple Color Emoji&amp;quot;, &amp;quot;Segoe UI Emoji&amp;quot;, &amp;quot;Segoe UI Symbol&amp;quot;, &amp;quot;Noto Color Emoji&amp;quot;, BlinkMacSystemFont, &amp;quot;Helvetica Neue&amp;quot;, Arial, &amp;quot;PingFang SC&amp;quot;, &amp;quot;PingFang TC&amp;quot;, &amp;quot;PingFang HK&amp;quot;, &amp;quot;Microsoft Yahei&amp;quot;, &amp;quot;Microsoft JhengHei&amp;quot;; font-size: 14px; white-space: pre;&quot;&gt;&lt;span style=&quot;color: rgba(0, 0, 0, 0.85); font-family: system-ui, -apple-system, &amp;quot;Segoe UI&amp;quot;, Roboto, Ubuntu, Cantarell, &amp;quot;Noto Sans&amp;quot;, sans-serif, &amp;quot;Apple Color Emoji&amp;quot;, &amp;quot;Segoe UI Emoji&amp;quot;, &amp;quot;Segoe UI Symbol&amp;quot;, &amp;quot;Noto Color Emoji&amp;quot;, BlinkMacSystemFont, &amp;quot;Helvetica Neue&amp;quot;, Arial, &amp;quot;PingFang SC&amp;quot;, &amp;quot;PingFang TC&amp;quot;, &amp;quot;PingFang HK&amp;quot;, &amp;quot;Microsoft Yahei&amp;quot;, &amp;quot;Microsoft JhengHei&amp;quot;; font-size: 14px; white-space: pre; background-color: rgb(255, 255, 255);&quot;&gt;+ groupHealth&lt;/span&gt;&lt;/p&gt;" style="verticalAlign=top;align=left;overflow=fill;html=1;whiteSpace=wrap;" vertex="1" parent="1">
          <mxGeometry x="890" y="770" width="190" height="140" as="geometry" />
        </mxCell>
        <mxCell id="bPCXKUU8ZjuMoyH03GHd-50" style="edgeStyle=orthogonalEdgeStyle;rounded=0;orthogonalLoop=1;jettySize=auto;html=1;exitX=0.5;exitY=0;exitDx=0;exitDy=0;" edge="1" parent="1" source="bPCXKUU8ZjuMoyH03GHd-45" target="bPCXKUU8ZjuMoyH03GHd-31">
          <mxGeometry relative="1" as="geometry" />
        </mxCell>
        <mxCell id="bPCXKUU8ZjuMoyH03GHd-45" value="&lt;p style=&quot;margin:0px;margin-top:4px;text-align:center;&quot;&gt;&lt;i&gt;&amp;lt;&amp;lt;Interface&amp;gt;&amp;gt;&lt;/i&gt;&lt;br&gt;&lt;span style=&quot;color: rgba(0, 0, 0, 0.85); font-family: system-ui, -apple-system, &amp;quot;Segoe UI&amp;quot;, Roboto, Ubuntu, Cantarell, &amp;quot;Noto Sans&amp;quot;, sans-serif, &amp;quot;Apple Color Emoji&amp;quot;, &amp;quot;Segoe UI Emoji&amp;quot;, &amp;quot;Segoe UI Symbol&amp;quot;, &amp;quot;Noto Color Emoji&amp;quot;, BlinkMacSystemFont, &amp;quot;Helvetica Neue&amp;quot;, Arial, &amp;quot;PingFang SC&amp;quot;, &amp;quot;PingFang TC&amp;quot;, &amp;quot;PingFang HK&amp;quot;, &amp;quot;Microsoft Yahei&amp;quot;, &amp;quot;Microsoft JhengHei&amp;quot;; font-size: 14px; text-align: left; white-space: pre; background-color: rgb(255, 255, 255);&quot;&gt;StaEvaluateMapper&lt;/span&gt;&lt;/p&gt;&lt;hr size=&quot;1&quot; style=&quot;border-style:solid;&quot;&gt;&lt;p style=&quot;margin:0px;margin-left:4px;&quot;&gt;&lt;span style=&quot;background-color: rgb(255, 255, 255); color: rgba(0, 0, 0, 0.85);&quot;&gt;&lt;font face=&quot;system-ui, -apple-system, Segoe UI, Roboto, Ubuntu, Cantarell, Noto Sans, sans-serif, Apple Color Emoji, Segoe UI Emoji, Segoe UI Symbol, Noto Color Emoji, BlinkMacSystemFont, Helvetica Neue, Arial, PingFang SC, PingFang TC, PingFang HK, Microsoft Yahei, Microsoft JhengHei&quot; color=&quot;rgba(0, 0, 0, 0.85)&quot;&gt;&lt;span style=&quot;font-size: 14px; white-space: pre;&quot;&gt;+ workOrderFixScore&lt;br&gt;+ groupHealth&lt;/span&gt;&lt;/font&gt;&lt;br&gt;&lt;br&gt;&lt;/span&gt;&lt;/p&gt;" style="verticalAlign=top;align=left;overflow=fill;html=1;whiteSpace=wrap;" vertex="1" parent="1">
          <mxGeometry x="250" y="950" width="190" height="140" as="geometry" />
        </mxCell>
        <mxCell id="bPCXKUU8ZjuMoyH03GHd-52" style="edgeStyle=orthogonalEdgeStyle;rounded=0;orthogonalLoop=1;jettySize=auto;html=1;exitX=0.5;exitY=0;exitDx=0;exitDy=0;entryX=0.5;entryY=1;entryDx=0;entryDy=0;" edge="1" parent="1" source="bPCXKUU8ZjuMoyH03GHd-46" target="bPCXKUU8ZjuMoyH03GHd-32">
          <mxGeometry relative="1" as="geometry" />
        </mxCell>
        <mxCell id="bPCXKUU8ZjuMoyH03GHd-46" value="&lt;p style=&quot;margin:0px;margin-top:4px;text-align:center;&quot;&gt;&lt;i&gt;&amp;lt;&amp;lt;Interface&amp;gt;&amp;gt;&lt;/i&gt;&lt;br&gt;&lt;span style=&quot;color: rgba(0, 0, 0, 0.85); font-family: system-ui, -apple-system, &amp;quot;Segoe UI&amp;quot;, Roboto, Ubuntu, Cantarell, &amp;quot;Noto Sans&amp;quot;, sans-serif, &amp;quot;Apple Color Emoji&amp;quot;, &amp;quot;Segoe UI Emoji&amp;quot;, &amp;quot;Segoe UI Symbol&amp;quot;, &amp;quot;Noto Color Emoji&amp;quot;, BlinkMacSystemFont, &amp;quot;Helvetica Neue&amp;quot;, Arial, &amp;quot;PingFang SC&amp;quot;, &amp;quot;PingFang TC&amp;quot;, &amp;quot;PingFang HK&amp;quot;, &amp;quot;Microsoft Yahei&amp;quot;, &amp;quot;Microsoft JhengHei&amp;quot;; font-size: 14px; text-align: left; white-space: pre; background-color: rgb(255, 255, 255);&quot;&gt;StaService&lt;/span&gt;&lt;span style=&quot;background-color: rgb(255, 255, 255); color: rgba(0, 0, 0, 0.85); font-family: system-ui, -apple-system, &amp;quot;Segoe UI&amp;quot;, Roboto, Ubuntu, Cantarell, &amp;quot;Noto Sans&amp;quot;, sans-serif, &amp;quot;Apple Color Emoji&amp;quot;, &amp;quot;Segoe UI Emoji&amp;quot;, &amp;quot;Segoe UI Symbol&amp;quot;, &amp;quot;Noto Color Emoji&amp;quot;, BlinkMacSystemFont, &amp;quot;Helvetica Neue&amp;quot;, Arial, &amp;quot;PingFang SC&amp;quot;, &amp;quot;PingFang TC&amp;quot;, &amp;quot;PingFang HK&amp;quot;, &amp;quot;Microsoft Yahei&amp;quot;, &amp;quot;Microsoft JhengHei&amp;quot;; font-size: 14px; white-space: pre; text-align: left;&quot;&gt;Mapper&lt;/span&gt;&lt;/p&gt;&lt;hr size=&quot;1&quot; style=&quot;border-style:solid;&quot;&gt;&lt;p style=&quot;margin:0px;margin-left:4px;&quot;&gt;&amp;nbsp;&lt;font face=&quot;system-ui, -apple-system, Segoe UI, Roboto, Ubuntu, Cantarell, Noto Sans, sans-serif, Apple Color Emoji, Segoe UI Emoji, Segoe UI Symbol, Noto Color Emoji, BlinkMacSystemFont, Helvetica Neue, Arial, PingFang SC, PingFang TC, PingFang HK, Microsoft Yahei, Microsoft JhengHei&quot; color=&quot;rgba(0, 0, 0, 0.85)&quot;&gt;&lt;span style=&quot;font-size: 14px; white-space: pre;&quot;&gt;+ workOrderTypeCount&lt;br&gt;+ workOrderScoreCount&lt;br&gt;+ workOrderOnTime&lt;/span&gt;&lt;/font&gt;&lt;/p&gt;" style="verticalAlign=top;align=left;overflow=fill;html=1;whiteSpace=wrap;" vertex="1" parent="1">
          <mxGeometry x="470" y="950" width="190" height="140" as="geometry" />
        </mxCell>
        <mxCell id="bPCXKUU8ZjuMoyH03GHd-54" style="edgeStyle=orthogonalEdgeStyle;rounded=0;orthogonalLoop=1;jettySize=auto;html=1;exitX=0.5;exitY=0;exitDx=0;exitDy=0;" edge="1" parent="1" source="bPCXKUU8ZjuMoyH03GHd-47" target="bPCXKUU8ZjuMoyH03GHd-33">
          <mxGeometry relative="1" as="geometry" />
        </mxCell>
        <mxCell id="bPCXKUU8ZjuMoyH03GHd-47" value="&lt;p style=&quot;margin:0px;margin-top:4px;text-align:center;&quot;&gt;&lt;i&gt;&amp;lt;&amp;lt;Interface&amp;gt;&amp;gt;&lt;/i&gt;&lt;br&gt;&lt;span style=&quot;color: rgba(0, 0, 0, 0.85); font-family: system-ui, -apple-system, &amp;quot;Segoe UI&amp;quot;, Roboto, Ubuntu, Cantarell, &amp;quot;Noto Sans&amp;quot;, sans-serif, &amp;quot;Apple Color Emoji&amp;quot;, &amp;quot;Segoe UI Emoji&amp;quot;, &amp;quot;Segoe UI Symbol&amp;quot;, &amp;quot;Noto Color Emoji&amp;quot;, BlinkMacSystemFont, &amp;quot;Helvetica Neue&amp;quot;, Arial, &amp;quot;PingFang SC&amp;quot;, &amp;quot;PingFang TC&amp;quot;, &amp;quot;PingFang HK&amp;quot;, &amp;quot;Microsoft Yahei&amp;quot;, &amp;quot;Microsoft JhengHei&amp;quot;; font-size: 14px; text-align: left; white-space: pre; background-color: rgb(255, 255, 255);&quot;&gt;CmsService&lt;/span&gt;&lt;span style=&quot;background-color: rgb(255, 255, 255); color: rgba(0, 0, 0, 0.85); font-family: system-ui, -apple-system, &amp;quot;Segoe UI&amp;quot;, Roboto, Ubuntu, Cantarell, &amp;quot;Noto Sans&amp;quot;, sans-serif, &amp;quot;Apple Color Emoji&amp;quot;, &amp;quot;Segoe UI Emoji&amp;quot;, &amp;quot;Segoe UI Symbol&amp;quot;, &amp;quot;Noto Color Emoji&amp;quot;, BlinkMacSystemFont, &amp;quot;Helvetica Neue&amp;quot;, Arial, &amp;quot;PingFang SC&amp;quot;, &amp;quot;PingFang TC&amp;quot;, &amp;quot;PingFang HK&amp;quot;, &amp;quot;Microsoft Yahei&amp;quot;, &amp;quot;Microsoft JhengHei&amp;quot;; font-size: 14px; white-space: pre; text-align: left;&quot;&gt;Mapper&lt;/span&gt;&lt;/p&gt;&lt;hr size=&quot;1&quot; style=&quot;border-style:solid;&quot;&gt;&lt;p style=&quot;margin:0px;margin-left:4px;&quot;&gt;&amp;nbsp;&lt;font face=&quot;system-ui, -apple-system, Segoe UI, Roboto, Ubuntu, Cantarell, Noto Sans, sans-serif, Apple Color Emoji, Segoe UI Emoji, Segoe UI Symbol, Noto Color Emoji, BlinkMacSystemFont, Helvetica Neue, Arial, PingFang SC, PingFang TC, PingFang HK, Microsoft Yahei, Microsoft JhengHei&quot; color=&quot;rgba(0, 0, 0, 0.85)&quot;&gt;&lt;span style=&quot;font-size: 14px; white-space: pre;&quot;&gt;+ workOrderStatusStat&lt;br&gt;+ deviceTypeStat&lt;br&gt;+ workOrderFault&lt;/span&gt;&lt;/font&gt;&lt;/p&gt;" style="verticalAlign=top;align=left;overflow=fill;html=1;whiteSpace=wrap;" vertex="1" parent="1">
          <mxGeometry x="680" y="950" width="190" height="140" as="geometry" />
        </mxCell>
        <mxCell id="bPCXKUU8ZjuMoyH03GHd-56" style="edgeStyle=orthogonalEdgeStyle;rounded=0;orthogonalLoop=1;jettySize=auto;html=1;exitX=0.5;exitY=0;exitDx=0;exitDy=0;entryX=0.5;entryY=1;entryDx=0;entryDy=0;" edge="1" parent="1" source="bPCXKUU8ZjuMoyH03GHd-48" target="bPCXKUU8ZjuMoyH03GHd-34">
          <mxGeometry relative="1" as="geometry" />
        </mxCell>
        <mxCell id="bPCXKUU8ZjuMoyH03GHd-48" value="&lt;p style=&quot;margin:0px;margin-top:4px;text-align:center;&quot;&gt;&lt;i&gt;&amp;lt;&amp;lt;Interface&amp;gt;&amp;gt;&lt;/i&gt;&lt;br&gt;&lt;span style=&quot;color: rgba(0, 0, 0, 0.85); font-family: system-ui, -apple-system, &amp;quot;Segoe UI&amp;quot;, Roboto, Ubuntu, Cantarell, &amp;quot;Noto Sans&amp;quot;, sans-serif, &amp;quot;Apple Color Emoji&amp;quot;, &amp;quot;Segoe UI Emoji&amp;quot;, &amp;quot;Segoe UI Symbol&amp;quot;, &amp;quot;Noto Color Emoji&amp;quot;, BlinkMacSystemFont, &amp;quot;Helvetica Neue&amp;quot;, Arial, &amp;quot;PingFang SC&amp;quot;, &amp;quot;PingFang TC&amp;quot;, &amp;quot;PingFang HK&amp;quot;, &amp;quot;Microsoft Yahei&amp;quot;, &amp;quot;Microsoft JhengHei&amp;quot;; font-size: 14px; text-align: left; white-space: pre; background-color: rgb(255, 255, 255);&quot;&gt;BaseLineService&lt;/span&gt;&lt;span style=&quot;background-color: rgb(255, 255, 255); color: rgba(0, 0, 0, 0.85); font-family: system-ui, -apple-system, &amp;quot;Segoe UI&amp;quot;, Roboto, Ubuntu, Cantarell, &amp;quot;Noto Sans&amp;quot;, sans-serif, &amp;quot;Apple Color Emoji&amp;quot;, &amp;quot;Segoe UI Emoji&amp;quot;, &amp;quot;Segoe UI Symbol&amp;quot;, &amp;quot;Noto Color Emoji&amp;quot;, BlinkMacSystemFont, &amp;quot;Helvetica Neue&amp;quot;, Arial, &amp;quot;PingFang SC&amp;quot;, &amp;quot;PingFang TC&amp;quot;, &amp;quot;PingFang HK&amp;quot;, &amp;quot;Microsoft Yahei&amp;quot;, &amp;quot;Microsoft JhengHei&amp;quot;; font-size: 14px; white-space: pre; text-align: left;&quot;&gt;Mapper&lt;/span&gt;&lt;/p&gt;&lt;hr size=&quot;1&quot; style=&quot;border-style:solid;&quot;&gt;&lt;p style=&quot;margin:0px;margin-left:4px;&quot;&gt;&lt;span style=&quot;color: rgba(0, 0, 0, 0.85); font-family: system-ui, -apple-system, &amp;quot;Segoe UI&amp;quot;, Roboto, Ubuntu, Cantarell, &amp;quot;Noto Sans&amp;quot;, sans-serif, &amp;quot;Apple Color Emoji&amp;quot;, &amp;quot;Segoe UI Emoji&amp;quot;, &amp;quot;Segoe UI Symbol&amp;quot;, &amp;quot;Noto Color Emoji&amp;quot;, BlinkMacSystemFont, &amp;quot;Helvetica Neue&amp;quot;, Arial, &amp;quot;PingFang SC&amp;quot;, &amp;quot;PingFang TC&amp;quot;, &amp;quot;PingFang HK&amp;quot;, &amp;quot;Microsoft Yahei&amp;quot;, &amp;quot;Microsoft JhengHei&amp;quot;; font-size: 14px; white-space: pre; background-color: rgb(255, 255, 255);&quot;&gt;+ workOrderOnTime&lt;/span&gt;&lt;br style=&quot;color: rgba(0, 0, 0, 0.85); font-family: system-ui, -apple-system, &amp;quot;Segoe UI&amp;quot;, Roboto, Ubuntu, Cantarell, &amp;quot;Noto Sans&amp;quot;, sans-serif, &amp;quot;Apple Color Emoji&amp;quot;, &amp;quot;Segoe UI Emoji&amp;quot;, &amp;quot;Segoe UI Symbol&amp;quot;, &amp;quot;Noto Color Emoji&amp;quot;, BlinkMacSystemFont, &amp;quot;Helvetica Neue&amp;quot;, Arial, &amp;quot;PingFang SC&amp;quot;, &amp;quot;PingFang TC&amp;quot;, &amp;quot;PingFang HK&amp;quot;, &amp;quot;Microsoft Yahei&amp;quot;, &amp;quot;Microsoft JhengHei&amp;quot;; font-size: 14px; white-space: pre;&quot;&gt;&lt;span style=&quot;color: rgba(0, 0, 0, 0.85); font-family: system-ui, -apple-system, &amp;quot;Segoe UI&amp;quot;, Roboto, Ubuntu, Cantarell, &amp;quot;Noto Sans&amp;quot;, sans-serif, &amp;quot;Apple Color Emoji&amp;quot;, &amp;quot;Segoe UI Emoji&amp;quot;, &amp;quot;Segoe UI Symbol&amp;quot;, &amp;quot;Noto Color Emoji&amp;quot;, BlinkMacSystemFont, &amp;quot;Helvetica Neue&amp;quot;, Arial, &amp;quot;PingFang SC&amp;quot;, &amp;quot;PingFang TC&amp;quot;, &amp;quot;PingFang HK&amp;quot;, &amp;quot;Microsoft Yahei&amp;quot;, &amp;quot;Microsoft JhengHei&amp;quot;; font-size: 14px; white-space: pre; background-color: rgb(255, 255, 255);&quot;&gt;+ workOrderFixScore&lt;/span&gt;&lt;br style=&quot;color: rgba(0, 0, 0, 0.85); font-family: system-ui, -apple-system, &amp;quot;Segoe UI&amp;quot;, Roboto, Ubuntu, Cantarell, &amp;quot;Noto Sans&amp;quot;, sans-serif, &amp;quot;Apple Color Emoji&amp;quot;, &amp;quot;Segoe UI Emoji&amp;quot;, &amp;quot;Segoe UI Symbol&amp;quot;, &amp;quot;Noto Color Emoji&amp;quot;, BlinkMacSystemFont, &amp;quot;Helvetica Neue&amp;quot;, Arial, &amp;quot;PingFang SC&amp;quot;, &amp;quot;PingFang TC&amp;quot;, &amp;quot;PingFang HK&amp;quot;, &amp;quot;Microsoft Yahei&amp;quot;, &amp;quot;Microsoft JhengHei&amp;quot;; font-size: 14px; white-space: pre;&quot;&gt;&lt;span style=&quot;color: rgba(0, 0, 0, 0.85); font-family: system-ui, -apple-system, &amp;quot;Segoe UI&amp;quot;, Roboto, Ubuntu, Cantarell, &amp;quot;Noto Sans&amp;quot;, sans-serif, &amp;quot;Apple Color Emoji&amp;quot;, &amp;quot;Segoe UI Emoji&amp;quot;, &amp;quot;Segoe UI Symbol&amp;quot;, &amp;quot;Noto Color Emoji&amp;quot;, BlinkMacSystemFont, &amp;quot;Helvetica Neue&amp;quot;, Arial, &amp;quot;PingFang SC&amp;quot;, &amp;quot;PingFang TC&amp;quot;, &amp;quot;PingFang HK&amp;quot;, &amp;quot;Microsoft Yahei&amp;quot;, &amp;quot;Microsoft JhengHei&amp;quot;; font-size: 14px; white-space: pre; background-color: rgb(255, 255, 255);&quot;&gt;+ groupHealth&lt;/span&gt;&lt;/p&gt;" style="verticalAlign=top;align=left;overflow=fill;html=1;whiteSpace=wrap;" vertex="1" parent="1">
          <mxGeometry x="890" y="950" width="190" height="140" as="geometry" />
        </mxCell>
        <mxCell id="bPCXKUU8ZjuMoyH03GHd-58" value="&lt;span style=&quot;color: rgba(0, 0, 0, 0.85); font-family: system-ui, -apple-system, &amp;quot;Segoe UI&amp;quot;, Roboto, Ubuntu, Cantarell, &amp;quot;Noto Sans&amp;quot;, sans-serif, &amp;quot;Apple Color Emoji&amp;quot;, &amp;quot;Segoe UI Emoji&amp;quot;, &amp;quot;Segoe UI Symbol&amp;quot;, &amp;quot;Noto Color Emoji&amp;quot;, BlinkMacSystemFont, &amp;quot;Helvetica Neue&amp;quot;, Arial, &amp;quot;PingFang SC&amp;quot;, &amp;quot;PingFang TC&amp;quot;, &amp;quot;PingFang HK&amp;quot;, &amp;quot;Microsoft Yahei&amp;quot;, &amp;quot;Microsoft JhengHei&amp;quot;; font-size: 14px; font-weight: 400; text-align: left; white-space: pre; background-color: rgb(255, 255, 255);&quot;&gt;DeviceAlarmController&lt;/span&gt;" style="swimlane;fontStyle=1;align=center;verticalAlign=top;childLayout=stackLayout;horizontal=1;startSize=26;horizontalStack=0;resizeParent=1;resizeParentMax=0;resizeLast=0;collapsible=1;marginBottom=0;whiteSpace=wrap;html=1;" vertex="1" parent="1">
          <mxGeometry x="530" y="1140" width="490" height="310" as="geometry" />
        </mxCell>
        <mxCell id="bPCXKUU8ZjuMoyH03GHd-59" value="&lt;font face=&quot;system-ui, -apple-system, Segoe UI, Roboto, Ubuntu, Cantarell, Noto Sans, sans-serif, Apple Color Emoji, Segoe UI Emoji, Segoe UI Symbol, Noto Color Emoji, BlinkMacSystemFont, Helvetica Neue, Arial, PingFang SC, PingFang TC, PingFang HK, Microsoft Yahei, Microsoft JhengHei&quot; color=&quot;rgba(0, 0, 0, 0.85)&quot;&gt;&lt;span style=&quot;font-size: 14px; white-space: pre;&quot;&gt;+ deviceAlarmService: DeviceAlarmService&lt;br/&gt;+ mlcAlarmService: MlcAlarmService&lt;br/&gt;+ mlcAlarmIgnoreService: MlcAlarmIgnoreService&lt;br/&gt;+ propertyUtil: PropertyUtil&lt;/span&gt;&lt;/font&gt;" style="text;strokeColor=none;fillColor=none;align=left;verticalAlign=top;spacingLeft=4;spacingRight=4;overflow=hidden;rotatable=0;points=[[0,0.5],[1,0.5]];portConstraint=eastwest;whiteSpace=wrap;html=1;" vertex="1" parent="bPCXKUU8ZjuMoyH03GHd-58">
          <mxGeometry y="26" width="490" height="114" as="geometry" />
        </mxCell>
        <mxCell id="bPCXKUU8ZjuMoyH03GHd-60" value="" style="line;strokeWidth=1;fillColor=none;align=left;verticalAlign=middle;spacingTop=-1;spacingLeft=3;spacingRight=3;rotatable=0;labelPosition=right;points=[];portConstraint=eastwest;strokeColor=inherit;" vertex="1" parent="bPCXKUU8ZjuMoyH03GHd-58">
          <mxGeometry y="140" width="490" height="8" as="geometry" />
        </mxCell>
        <mxCell id="bPCXKUU8ZjuMoyH03GHd-61" value="&lt;font face=&quot;system-ui, -apple-system, Segoe UI, Roboto, Ubuntu, Cantarell, Noto Sans, sans-serif, Apple Color Emoji, Segoe UI Emoji, Segoe UI Symbol, Noto Color Emoji, BlinkMacSystemFont, Helvetica Neue, Arial, PingFang SC, PingFang TC, PingFang HK, Microsoft Yahei, Microsoft JhengHei&quot; color=&quot;rgba(0, 0, 0, 0.85)&quot;&gt;&lt;span style=&quot;font-size: 14px; white-space: pre;&quot;&gt;+ queryPageList(MlcAlarm, Integer, Integer, HttpServletRequest)&lt;br/&gt;+ listSC(DeviceAlarmRequest, Integer, Integer, HttpServletRequest)&lt;br/&gt;+ listSW(DeviceAlarmRequest, Integer, Integer, HttpServletRequest)&lt;br/&gt;+ listZabbix(DeviceAlarmRequest)&lt;br/&gt;+ listAll(DeviceAlarmRequest)&lt;br/&gt;+ ignore(@RequestParam(&quot;eventId&quot;) String)&lt;br/&gt;+ statGroupStation()&lt;/span&gt;&lt;/font&gt;" style="text;strokeColor=none;fillColor=none;align=left;verticalAlign=top;spacingLeft=4;spacingRight=4;overflow=hidden;rotatable=0;points=[[0,0.5],[1,0.5]];portConstraint=eastwest;whiteSpace=wrap;html=1;" vertex="1" parent="bPCXKUU8ZjuMoyH03GHd-58">
          <mxGeometry y="148" width="490" height="162" as="geometry" />
        </mxCell>
        <mxCell id="bPCXKUU8ZjuMoyH03GHd-62" value="&lt;p style=&quot;margin:0px;margin-top:4px;text-align:center;&quot;&gt;&lt;i&gt;&amp;lt;&amp;lt;Interface&amp;gt;&amp;gt;&lt;/i&gt;&lt;br&gt;&lt;span style=&quot;color: rgba(0, 0, 0, 0.85); font-family: system-ui, -apple-system, &amp;quot;Segoe UI&amp;quot;, Roboto, Ubuntu, Cantarell, &amp;quot;Noto Sans&amp;quot;, sans-serif, &amp;quot;Apple Color Emoji&amp;quot;, &amp;quot;Segoe UI Emoji&amp;quot;, &amp;quot;Segoe UI Symbol&amp;quot;, &amp;quot;Noto Color Emoji&amp;quot;, BlinkMacSystemFont, &amp;quot;Helvetica Neue&amp;quot;, Arial, &amp;quot;PingFang SC&amp;quot;, &amp;quot;PingFang TC&amp;quot;, &amp;quot;PingFang HK&amp;quot;, &amp;quot;Microsoft Yahei&amp;quot;, &amp;quot;Microsoft JhengHei&amp;quot;; font-size: 14px; text-align: left; white-space: pre;&quot;&gt;DeviceAlarmService&lt;/span&gt;&lt;/p&gt;&lt;hr size=&quot;1&quot; style=&quot;border-style:solid;&quot;&gt;&lt;p style=&quot;margin:0px;margin-left:4px;&quot;&gt;&lt;span style=&quot;background-color: rgb(255, 255, 255); color: rgba(0, 0, 0, 0.85);&quot;&gt;&lt;font face=&quot;system-ui, -apple-system, Segoe UI, Roboto, Ubuntu, Cantarell, Noto Sans, sans-serif, Apple Color Emoji, Segoe UI Emoji, Segoe UI Symbol, Noto Color Emoji, BlinkMacSystemFont, Helvetica Neue, Arial, PingFang SC, PingFang TC, PingFang HK, Microsoft Yahei, Microsoft JhengHei&quot; color=&quot;rgba(0, 0, 0, 0.85)&quot;&gt;&lt;span style=&quot;font-size: 14px; white-space: pre;&quot;&gt;+ listAll&lt;br&gt;+ ignore&lt;br&gt;+ statGroupStation&lt;/span&gt;&lt;/font&gt;&lt;br&gt;&lt;br&gt;&lt;/span&gt;&lt;/p&gt;" style="verticalAlign=top;align=left;overflow=fill;html=1;whiteSpace=wrap;" vertex="1" parent="1">
          <mxGeometry x="480" y="1500" width="190" height="140" as="geometry" />
        </mxCell>
        <mxCell id="bPCXKUU8ZjuMoyH03GHd-63" value="&lt;p style=&quot;margin:0px;margin-top:4px;text-align:center;&quot;&gt;&lt;i&gt;&amp;lt;&amp;lt;Interface&amp;gt;&amp;gt;&lt;/i&gt;&lt;br&gt;&lt;span style=&quot;color: rgba(0, 0, 0, 0.85); font-family: system-ui, -apple-system, &amp;quot;Segoe UI&amp;quot;, Roboto, Ubuntu, Cantarell, &amp;quot;Noto Sans&amp;quot;, sans-serif, &amp;quot;Apple Color Emoji&amp;quot;, &amp;quot;Segoe UI Emoji&amp;quot;, &amp;quot;Segoe UI Symbol&amp;quot;, &amp;quot;Noto Color Emoji&amp;quot;, BlinkMacSystemFont, &amp;quot;Helvetica Neue&amp;quot;, Arial, &amp;quot;PingFang SC&amp;quot;, &amp;quot;PingFang TC&amp;quot;, &amp;quot;PingFang HK&amp;quot;, &amp;quot;Microsoft Yahei&amp;quot;, &amp;quot;Microsoft JhengHei&amp;quot;; font-size: 14px; text-align: left; white-space: pre;&quot;&gt;MlcAlarmService&lt;/span&gt;&lt;/p&gt;&lt;hr size=&quot;1&quot; style=&quot;border-style:solid;&quot;&gt;&lt;p style=&quot;margin:0px;margin-left:4px;&quot;&gt;&lt;span style=&quot;background-color: transparent; font-size: 14px; white-space: pre;&quot;&gt;&lt;font face=&quot;system-ui, -apple-system, Segoe UI, Roboto, Ubuntu, Cantarell, Noto Sans, sans-serif, Apple Color Emoji, Segoe UI Emoji, Segoe UI Symbol, Noto Color Emoji, BlinkMacSystemFont, Helvetica Neue, Arial, PingFang SC, PingFang TC, PingFang HK, Microsoft Yahei, Microsoft JhengHei&quot; color=&quot;rgba(0, 0, 0, 0.85)&quot;&gt;+ listSW&lt;br&gt;+ listZabbix&lt;/font&gt;&lt;/span&gt;&lt;/p&gt;" style="verticalAlign=top;align=left;overflow=fill;html=1;whiteSpace=wrap;" vertex="1" parent="1">
          <mxGeometry x="700" y="1500" width="190" height="140" as="geometry" />
        </mxCell>
        <mxCell id="bPCXKUU8ZjuMoyH03GHd-64" value="&lt;p style=&quot;margin:0px;margin-top:4px;text-align:center;&quot;&gt;&lt;i&gt;&amp;lt;&amp;lt;Interface&amp;gt;&amp;gt;&lt;/i&gt;&lt;br&gt;&lt;span style=&quot;color: rgba(0, 0, 0, 0.85); font-family: system-ui, -apple-system, &amp;quot;Segoe UI&amp;quot;, Roboto, Ubuntu, Cantarell, &amp;quot;Noto Sans&amp;quot;, sans-serif, &amp;quot;Apple Color Emoji&amp;quot;, &amp;quot;Segoe UI Emoji&amp;quot;, &amp;quot;Segoe UI Symbol&amp;quot;, &amp;quot;Noto Color Emoji&amp;quot;, BlinkMacSystemFont, &amp;quot;Helvetica Neue&amp;quot;, Arial, &amp;quot;PingFang SC&amp;quot;, &amp;quot;PingFang TC&amp;quot;, &amp;quot;PingFang HK&amp;quot;, &amp;quot;Microsoft Yahei&amp;quot;, &amp;quot;Microsoft JhengHei&amp;quot;; font-size: 14px; text-align: left; white-space: pre;&quot;&gt;MlcAlarmIgnoreService&lt;/span&gt;&lt;/p&gt;&lt;hr size=&quot;1&quot; style=&quot;border-style:solid;&quot;&gt;&lt;p style=&quot;margin:0px;margin-left:4px;&quot;&gt;&lt;font face=&quot;system-ui, -apple-system, Segoe UI, Roboto, Ubuntu, Cantarell, Noto Sans, sans-serif, Apple Color Emoji, Segoe UI Emoji, Segoe UI Symbol, Noto Color Emoji, BlinkMacSystemFont, Helvetica Neue, Arial, PingFang SC, PingFang TC, PingFang HK, Microsoft Yahei, Microsoft JhengHei&quot; color=&quot;rgba(0, 0, 0, 0.85)&quot;&gt;&lt;span style=&quot;font-size: 14px; white-space: pre;&quot;&gt;+ &lt;/span&gt;&lt;/font&gt;&lt;span style=&quot;background-color: transparent; font-size: 14px; white-space: pre;&quot;&gt;&lt;font face=&quot;system-ui, -apple-system, Segoe UI, Roboto, Ubuntu, Cantarell, Noto Sans, sans-serif, Apple Color Emoji, Segoe UI Emoji, Segoe UI Symbol, Noto Color Emoji, BlinkMacSystemFont, Helvetica Neue, Arial, PingFang SC, PingFang TC, PingFang HK, Microsoft Yahei, Microsoft JhengHei&quot; color=&quot;rgba(0, 0, 0, 0.85)&quot;&gt;queryPageList&lt;br&gt;+ listSC&lt;/font&gt;&lt;/span&gt;&lt;/p&gt;" style="verticalAlign=top;align=left;overflow=fill;html=1;whiteSpace=wrap;" vertex="1" parent="1">
          <mxGeometry x="910" y="1500" width="190" height="140" as="geometry" />
        </mxCell>
        <mxCell id="bPCXKUU8ZjuMoyH03GHd-66" value="" style="endArrow=classic;html=1;rounded=0;entryX=0.5;entryY=0;entryDx=0;entryDy=0;exitX=0.49;exitY=1.007;exitDx=0;exitDy=0;exitPerimeter=0;" edge="1" parent="1" source="bPCXKUU8ZjuMoyH03GHd-61" target="bPCXKUU8ZjuMoyH03GHd-62">
          <mxGeometry relative="1" as="geometry">
            <mxPoint x="730" y="1530" as="sourcePoint" />
            <mxPoint x="890" y="1530" as="targetPoint" />
          </mxGeometry>
        </mxCell>
        <mxCell id="bPCXKUU8ZjuMoyH03GHd-67" value="use" style="edgeLabel;resizable=0;html=1;;align=center;verticalAlign=middle;" connectable="0" vertex="1" parent="bPCXKUU8ZjuMoyH03GHd-66">
          <mxGeometry relative="1" as="geometry" />
        </mxCell>
        <mxCell id="bPCXKUU8ZjuMoyH03GHd-68" value="" style="endArrow=classic;html=1;rounded=0;entryX=0.5;entryY=0;entryDx=0;entryDy=0;exitX=0.483;exitY=1.001;exitDx=0;exitDy=0;exitPerimeter=0;" edge="1" parent="1" target="bPCXKUU8ZjuMoyH03GHd-63" source="bPCXKUU8ZjuMoyH03GHd-61">
          <mxGeometry relative="1" as="geometry">
            <mxPoint x="770" y="1560" as="sourcePoint" />
            <mxPoint x="750" y="1668" as="targetPoint" />
          </mxGeometry>
        </mxCell>
        <mxCell id="bPCXKUU8ZjuMoyH03GHd-69" value="use" style="edgeLabel;resizable=0;html=1;;align=center;verticalAlign=middle;" connectable="0" vertex="1" parent="bPCXKUU8ZjuMoyH03GHd-68">
          <mxGeometry relative="1" as="geometry" />
        </mxCell>
        <mxCell id="bPCXKUU8ZjuMoyH03GHd-70" value="" style="endArrow=classic;html=1;rounded=0;entryX=0.5;entryY=0;entryDx=0;entryDy=0;exitX=0.491;exitY=1.023;exitDx=0;exitDy=0;exitPerimeter=0;" edge="1" parent="1" target="bPCXKUU8ZjuMoyH03GHd-64" source="bPCXKUU8ZjuMoyH03GHd-61">
          <mxGeometry relative="1" as="geometry">
            <mxPoint x="770" y="1560" as="sourcePoint" />
            <mxPoint x="890" y="1678" as="targetPoint" />
          </mxGeometry>
        </mxCell>
        <mxCell id="bPCXKUU8ZjuMoyH03GHd-71" value="use" style="edgeLabel;resizable=0;html=1;;align=center;verticalAlign=middle;" connectable="0" vertex="1" parent="bPCXKUU8ZjuMoyH03GHd-70">
          <mxGeometry relative="1" as="geometry" />
        </mxCell>
        <mxCell id="bPCXKUU8ZjuMoyH03GHd-74" style="edgeStyle=orthogonalEdgeStyle;rounded=0;orthogonalLoop=1;jettySize=auto;html=1;exitX=0.5;exitY=0;exitDx=0;exitDy=0;entryX=0.5;entryY=1;entryDx=0;entryDy=0;" edge="1" parent="1" source="bPCXKUU8ZjuMoyH03GHd-75" target="bPCXKUU8ZjuMoyH03GHd-62">
          <mxGeometry relative="1" as="geometry" />
        </mxCell>
        <mxCell id="bPCXKUU8ZjuMoyH03GHd-75" value="&lt;p style=&quot;margin:0px;margin-top:4px;text-align:center;&quot;&gt;&lt;span style=&quot;color: rgba(0, 0, 0, 0.85); font-family: system-ui, -apple-system, &amp;quot;Segoe UI&amp;quot;, Roboto, Ubuntu, Cantarell, &amp;quot;Noto Sans&amp;quot;, sans-serif, &amp;quot;Apple Color Emoji&amp;quot;, &amp;quot;Segoe UI Emoji&amp;quot;, &amp;quot;Segoe UI Symbol&amp;quot;, &amp;quot;Noto Color Emoji&amp;quot;, BlinkMacSystemFont, &amp;quot;Helvetica Neue&amp;quot;, Arial, &amp;quot;PingFang SC&amp;quot;, &amp;quot;PingFang TC&amp;quot;, &amp;quot;PingFang HK&amp;quot;, &amp;quot;Microsoft Yahei&amp;quot;, &amp;quot;Microsoft JhengHei&amp;quot;; font-size: 14px; text-align: left; white-space: pre; background-color: rgb(255, 255, 255);&quot;&gt;&lt;span style=&quot;background-color: transparent;&quot;&gt;DeviceAlarm&lt;/span&gt;ServiceImpl&lt;/span&gt;&lt;/p&gt;&lt;hr size=&quot;1&quot; style=&quot;border-style:solid;&quot;&gt;&lt;p style=&quot;margin:0px;margin-left:4px;&quot;&gt;&lt;span style=&quot;background-color: rgb(255, 255, 255); color: rgba(0, 0, 0, 0.85);&quot;&gt;&lt;font face=&quot;system-ui, -apple-system, Segoe UI, Roboto, Ubuntu, Cantarell, Noto Sans, sans-serif, Apple Color Emoji, Segoe UI Emoji, Segoe UI Symbol, Noto Color Emoji, BlinkMacSystemFont, Helvetica Neue, Arial, PingFang SC, PingFang TC, PingFang HK, Microsoft Yahei, Microsoft JhengHei&quot; color=&quot;rgba(0, 0, 0, 0.85)&quot;&gt;&lt;span style=&quot;font-size: 14px; white-space: pre;&quot;&gt;+ listAll&lt;br&gt;+ ignore&lt;br&gt;+ statGroupStation&lt;/span&gt;&lt;/font&gt;&lt;br&gt;&lt;br&gt;&lt;/span&gt;&lt;/p&gt;" style="verticalAlign=top;align=left;overflow=fill;html=1;whiteSpace=wrap;" vertex="1" parent="1">
          <mxGeometry x="480" y="1680" width="190" height="140" as="geometry" />
        </mxCell>
        <mxCell id="bPCXKUU8ZjuMoyH03GHd-76" style="edgeStyle=orthogonalEdgeStyle;rounded=0;orthogonalLoop=1;jettySize=auto;html=1;exitX=0.5;exitY=0;exitDx=0;exitDy=0;entryX=0.5;entryY=1;entryDx=0;entryDy=0;" edge="1" parent="1" source="bPCXKUU8ZjuMoyH03GHd-77" target="bPCXKUU8ZjuMoyH03GHd-63">
          <mxGeometry relative="1" as="geometry" />
        </mxCell>
        <mxCell id="bPCXKUU8ZjuMoyH03GHd-77" value="&lt;p style=&quot;margin:0px;margin-top:4px;text-align:center;&quot;&gt;&lt;span style=&quot;background-color: rgb(255, 255, 255); color: rgba(0, 0, 0, 0.85); font-family: system-ui, -apple-system, &amp;quot;Segoe UI&amp;quot;, Roboto, Ubuntu, Cantarell, &amp;quot;Noto Sans&amp;quot;, sans-serif, &amp;quot;Apple Color Emoji&amp;quot;, &amp;quot;Segoe UI Emoji&amp;quot;, &amp;quot;Segoe UI Symbol&amp;quot;, &amp;quot;Noto Color Emoji&amp;quot;, BlinkMacSystemFont, &amp;quot;Helvetica Neue&amp;quot;, Arial, &amp;quot;PingFang SC&amp;quot;, &amp;quot;PingFang TC&amp;quot;, &amp;quot;PingFang HK&amp;quot;, &amp;quot;Microsoft Yahei&amp;quot;, &amp;quot;Microsoft JhengHei&amp;quot;; font-size: 14px; white-space: pre; text-align: left;&quot;&gt;&lt;span style=&quot;background-color: transparent;&quot;&gt;MlcAlarm&lt;/span&gt;Impl&lt;/span&gt;&lt;/p&gt;&lt;hr size=&quot;1&quot; style=&quot;border-style:solid;&quot;&gt;&lt;p style=&quot;margin:0px;margin-left:4px;&quot;&gt;&lt;span style=&quot;background-color: transparent; font-size: 14px; white-space: pre;&quot;&gt;&lt;font face=&quot;system-ui, -apple-system, Segoe UI, Roboto, Ubuntu, Cantarell, Noto Sans, sans-serif, Apple Color Emoji, Segoe UI Emoji, Segoe UI Symbol, Noto Color Emoji, BlinkMacSystemFont, Helvetica Neue, Arial, PingFang SC, PingFang TC, PingFang HK, Microsoft Yahei, Microsoft JhengHei&quot; color=&quot;rgba(0, 0, 0, 0.85)&quot;&gt;+ listSW&lt;br&gt;+ listZabbix&lt;/font&gt;&lt;/span&gt;&lt;/p&gt;" style="verticalAlign=top;align=left;overflow=fill;html=1;whiteSpace=wrap;" vertex="1" parent="1">
          <mxGeometry x="700" y="1680" width="190" height="140" as="geometry" />
        </mxCell>
        <mxCell id="bPCXKUU8ZjuMoyH03GHd-78" style="edgeStyle=orthogonalEdgeStyle;rounded=0;orthogonalLoop=1;jettySize=auto;html=1;exitX=0.5;exitY=0;exitDx=0;exitDy=0;entryX=0.5;entryY=1;entryDx=0;entryDy=0;" edge="1" parent="1" source="bPCXKUU8ZjuMoyH03GHd-79" target="bPCXKUU8ZjuMoyH03GHd-64">
          <mxGeometry relative="1" as="geometry" />
        </mxCell>
        <mxCell id="bPCXKUU8ZjuMoyH03GHd-79" value="&lt;p style=&quot;margin:0px;margin-top:4px;text-align:center;&quot;&gt;&lt;span style=&quot;color: rgba(0, 0, 0, 0.85); font-family: system-ui, -apple-system, &amp;quot;Segoe UI&amp;quot;, Roboto, Ubuntu, Cantarell, &amp;quot;Noto Sans&amp;quot;, sans-serif, &amp;quot;Apple Color Emoji&amp;quot;, &amp;quot;Segoe UI Emoji&amp;quot;, &amp;quot;Segoe UI Symbol&amp;quot;, &amp;quot;Noto Color Emoji&amp;quot;, BlinkMacSystemFont, &amp;quot;Helvetica Neue&amp;quot;, Arial, &amp;quot;PingFang SC&amp;quot;, &amp;quot;PingFang TC&amp;quot;, &amp;quot;PingFang HK&amp;quot;, &amp;quot;Microsoft Yahei&amp;quot;, &amp;quot;Microsoft JhengHei&amp;quot;; font-size: 14px; text-align: left; white-space: pre; background-color: rgb(255, 255, 255);&quot;&gt;&lt;span style=&quot;background-color: transparent;&quot;&gt;MlcAlarmIgnore&lt;/span&gt;Service&lt;/span&gt;&lt;span style=&quot;background-color: rgb(255, 255, 255); color: rgba(0, 0, 0, 0.85); font-family: system-ui, -apple-system, &amp;quot;Segoe UI&amp;quot;, Roboto, Ubuntu, Cantarell, &amp;quot;Noto Sans&amp;quot;, sans-serif, &amp;quot;Apple Color Emoji&amp;quot;, &amp;quot;Segoe UI Emoji&amp;quot;, &amp;quot;Segoe UI Symbol&amp;quot;, &amp;quot;Noto Color Emoji&amp;quot;, BlinkMacSystemFont, &amp;quot;Helvetica Neue&amp;quot;, Arial, &amp;quot;PingFang SC&amp;quot;, &amp;quot;PingFang TC&amp;quot;, &amp;quot;PingFang HK&amp;quot;, &amp;quot;Microsoft Yahei&amp;quot;, &amp;quot;Microsoft JhengHei&amp;quot;; font-size: 14px; white-space: pre; text-align: left;&quot;&gt;Impl&lt;/span&gt;&lt;/p&gt;&lt;hr size=&quot;1&quot; style=&quot;border-style:solid;&quot;&gt;&lt;p style=&quot;margin:0px;margin-left:4px;&quot;&gt;&lt;/p&gt;&lt;p style=&quot;margin:0px;margin-left:4px;&quot;&gt;&lt;font face=&quot;system-ui, -apple-system, Segoe UI, Roboto, Ubuntu, Cantarell, Noto Sans, sans-serif, Apple Color Emoji, Segoe UI Emoji, Segoe UI Symbol, Noto Color Emoji, BlinkMacSystemFont, Helvetica Neue, Arial, PingFang SC, PingFang TC, PingFang HK, Microsoft Yahei, Microsoft JhengHei&quot; color=&quot;rgba(0, 0, 0, 0.85)&quot;&gt;&lt;span style=&quot;font-size: 14px; white-space: pre;&quot;&gt;+ &lt;/span&gt;&lt;/font&gt;&lt;span style=&quot;background-color: transparent; font-size: 14px; white-space: pre;&quot;&gt;&lt;font face=&quot;system-ui, -apple-system, Segoe UI, Roboto, Ubuntu, Cantarell, Noto Sans, sans-serif, Apple Color Emoji, Segoe UI Emoji, Segoe UI Symbol, Noto Color Emoji, BlinkMacSystemFont, Helvetica Neue, Arial, PingFang SC, PingFang TC, PingFang HK, Microsoft Yahei, Microsoft JhengHei&quot; color=&quot;rgba(0, 0, 0, 0.85)&quot;&gt;queryPageList&lt;br&gt;+ listSC&lt;/font&gt;&lt;/span&gt;&lt;/p&gt;" style="verticalAlign=top;align=left;overflow=fill;html=1;whiteSpace=wrap;" vertex="1" parent="1">
          <mxGeometry x="910" y="1680" width="190" height="140" as="geometry" />
        </mxCell>
        <mxCell id="bPCXKUU8ZjuMoyH03GHd-82" style="edgeStyle=orthogonalEdgeStyle;rounded=0;orthogonalLoop=1;jettySize=auto;html=1;exitX=0.5;exitY=0;exitDx=0;exitDy=0;" edge="1" parent="1" source="bPCXKUU8ZjuMoyH03GHd-83" target="bPCXKUU8ZjuMoyH03GHd-75">
          <mxGeometry relative="1" as="geometry" />
        </mxCell>
        <mxCell id="bPCXKUU8ZjuMoyH03GHd-83" value="&lt;p style=&quot;margin:0px;margin-top:4px;text-align:center;&quot;&gt;&lt;i&gt;&amp;lt;&amp;lt;Interface&amp;gt;&amp;gt;&lt;/i&gt;&lt;/p&gt;&lt;p style=&quot;margin:0px;margin-top:4px;text-align:center;&quot;&gt;&lt;span style=&quot;color: rgba(0, 0, 0, 0.85); font-family: system-ui, -apple-system, &amp;quot;Segoe UI&amp;quot;, Roboto, Ubuntu, Cantarell, &amp;quot;Noto Sans&amp;quot;, sans-serif, &amp;quot;Apple Color Emoji&amp;quot;, &amp;quot;Segoe UI Emoji&amp;quot;, &amp;quot;Segoe UI Symbol&amp;quot;, &amp;quot;Noto Color Emoji&amp;quot;, BlinkMacSystemFont, &amp;quot;Helvetica Neue&amp;quot;, Arial, &amp;quot;PingFang SC&amp;quot;, &amp;quot;PingFang TC&amp;quot;, &amp;quot;PingFang HK&amp;quot;, &amp;quot;Microsoft Yahei&amp;quot;, &amp;quot;Microsoft JhengHei&amp;quot;; font-size: 14px; text-align: left; white-space: pre; background-color: rgb(255, 255, 255);&quot;&gt;&lt;span style=&quot;background-color: transparent;&quot;&gt;DeviceAlarm&lt;/span&gt;Mapper&lt;/span&gt;&lt;/p&gt;&lt;hr size=&quot;1&quot; style=&quot;border-style:solid;&quot;&gt;&lt;p style=&quot;margin:0px;margin-left:4px;&quot;&gt;&lt;span style=&quot;background-color: rgb(255, 255, 255); color: rgba(0, 0, 0, 0.85);&quot;&gt;&lt;font face=&quot;system-ui, -apple-system, Segoe UI, Roboto, Ubuntu, Cantarell, Noto Sans, sans-serif, Apple Color Emoji, Segoe UI Emoji, Segoe UI Symbol, Noto Color Emoji, BlinkMacSystemFont, Helvetica Neue, Arial, PingFang SC, PingFang TC, PingFang HK, Microsoft Yahei, Microsoft JhengHei&quot; color=&quot;rgba(0, 0, 0, 0.85)&quot;&gt;&lt;span style=&quot;font-size: 14px; white-space: pre;&quot;&gt;+ listAll&lt;br&gt;+ ignore&lt;br&gt;+ statGroupStation&lt;/span&gt;&lt;/font&gt;&lt;br&gt;&lt;br&gt;&lt;/span&gt;&lt;/p&gt;" style="verticalAlign=top;align=left;overflow=fill;html=1;whiteSpace=wrap;" vertex="1" parent="1">
          <mxGeometry x="480" y="1860" width="190" height="140" as="geometry" />
        </mxCell>
        <mxCell id="bPCXKUU8ZjuMoyH03GHd-84" style="edgeStyle=orthogonalEdgeStyle;rounded=0;orthogonalLoop=1;jettySize=auto;html=1;exitX=0.5;exitY=0;exitDx=0;exitDy=0;entryX=0.5;entryY=1;entryDx=0;entryDy=0;" edge="1" parent="1" source="bPCXKUU8ZjuMoyH03GHd-85" target="bPCXKUU8ZjuMoyH03GHd-77">
          <mxGeometry relative="1" as="geometry" />
        </mxCell>
        <mxCell id="bPCXKUU8ZjuMoyH03GHd-85" value="&lt;p style=&quot;margin:0px;margin-top:4px;text-align:center;&quot;&gt;&lt;i&gt;&amp;lt;&amp;lt;Interface&amp;gt;&amp;gt;&lt;/i&gt;&lt;/p&gt;&lt;p style=&quot;margin:0px;margin-top:4px;text-align:center;&quot;&gt;&lt;span style=&quot;background-color: rgb(255, 255, 255); color: rgba(0, 0, 0, 0.85); font-family: system-ui, -apple-system, &amp;quot;Segoe UI&amp;quot;, Roboto, Ubuntu, Cantarell, &amp;quot;Noto Sans&amp;quot;, sans-serif, &amp;quot;Apple Color Emoji&amp;quot;, &amp;quot;Segoe UI Emoji&amp;quot;, &amp;quot;Segoe UI Symbol&amp;quot;, &amp;quot;Noto Color Emoji&amp;quot;, BlinkMacSystemFont, &amp;quot;Helvetica Neue&amp;quot;, Arial, &amp;quot;PingFang SC&amp;quot;, &amp;quot;PingFang TC&amp;quot;, &amp;quot;PingFang HK&amp;quot;, &amp;quot;Microsoft Yahei&amp;quot;, &amp;quot;Microsoft JhengHei&amp;quot;; font-size: 14px; white-space: pre; text-align: left;&quot;&gt;&lt;span style=&quot;background-color: transparent;&quot;&gt;MlcAlarm&lt;/span&gt;Mapper&lt;/span&gt;&lt;/p&gt;&lt;hr size=&quot;1&quot; style=&quot;border-style:solid;&quot;&gt;&lt;p style=&quot;margin:0px;margin-left:4px;&quot;&gt;&lt;span style=&quot;background-color: transparent; font-size: 14px; white-space: pre;&quot;&gt;&lt;font face=&quot;system-ui, -apple-system, Segoe UI, Roboto, Ubuntu, Cantarell, Noto Sans, sans-serif, Apple Color Emoji, Segoe UI Emoji, Segoe UI Symbol, Noto Color Emoji, BlinkMacSystemFont, Helvetica Neue, Arial, PingFang SC, PingFang TC, PingFang HK, Microsoft Yahei, Microsoft JhengHei&quot; color=&quot;rgba(0, 0, 0, 0.85)&quot;&gt;+ listSW&lt;br&gt;+ listZabbix&lt;/font&gt;&lt;/span&gt;&lt;/p&gt;" style="verticalAlign=top;align=left;overflow=fill;html=1;whiteSpace=wrap;" vertex="1" parent="1">
          <mxGeometry x="700" y="1860" width="190" height="140" as="geometry" />
        </mxCell>
        <mxCell id="bPCXKUU8ZjuMoyH03GHd-86" style="edgeStyle=orthogonalEdgeStyle;rounded=0;orthogonalLoop=1;jettySize=auto;html=1;exitX=0.5;exitY=0;exitDx=0;exitDy=0;" edge="1" parent="1" source="bPCXKUU8ZjuMoyH03GHd-87" target="bPCXKUU8ZjuMoyH03GHd-79">
          <mxGeometry relative="1" as="geometry" />
        </mxCell>
        <mxCell id="bPCXKUU8ZjuMoyH03GHd-87" value="&lt;p style=&quot;margin:0px;margin-top:4px;text-align:center;&quot;&gt;&lt;i&gt;&amp;lt;&amp;lt;Interface&amp;gt;&amp;gt;&lt;/i&gt;&lt;/p&gt;&lt;p style=&quot;margin:0px;margin-top:4px;text-align:center;&quot;&gt;&lt;span style=&quot;color: rgba(0, 0, 0, 0.85); font-family: system-ui, -apple-system, &amp;quot;Segoe UI&amp;quot;, Roboto, Ubuntu, Cantarell, &amp;quot;Noto Sans&amp;quot;, sans-serif, &amp;quot;Apple Color Emoji&amp;quot;, &amp;quot;Segoe UI Emoji&amp;quot;, &amp;quot;Segoe UI Symbol&amp;quot;, &amp;quot;Noto Color Emoji&amp;quot;, BlinkMacSystemFont, &amp;quot;Helvetica Neue&amp;quot;, Arial, &amp;quot;PingFang SC&amp;quot;, &amp;quot;PingFang TC&amp;quot;, &amp;quot;PingFang HK&amp;quot;, &amp;quot;Microsoft Yahei&amp;quot;, &amp;quot;Microsoft JhengHei&amp;quot;; font-size: 14px; text-align: left; white-space: pre; background-color: rgb(255, 255, 255);&quot;&gt;&lt;span style=&quot;background-color: transparent;&quot;&gt;MlcAlarmIgnore&lt;/span&gt;&lt;/span&gt;&lt;span style=&quot;background-color: rgb(255, 255, 255); color: rgba(0, 0, 0, 0.85); font-family: system-ui, -apple-system, &amp;quot;Segoe UI&amp;quot;, Roboto, Ubuntu, Cantarell, &amp;quot;Noto Sans&amp;quot;, sans-serif, &amp;quot;Apple Color Emoji&amp;quot;, &amp;quot;Segoe UI Emoji&amp;quot;, &amp;quot;Segoe UI Symbol&amp;quot;, &amp;quot;Noto Color Emoji&amp;quot;, BlinkMacSystemFont, &amp;quot;Helvetica Neue&amp;quot;, Arial, &amp;quot;PingFang SC&amp;quot;, &amp;quot;PingFang TC&amp;quot;, &amp;quot;PingFang HK&amp;quot;, &amp;quot;Microsoft Yahei&amp;quot;, &amp;quot;Microsoft JhengHei&amp;quot;; font-size: 14px; white-space: pre; text-align: left;&quot;&gt;Mapper&lt;/span&gt;&lt;/p&gt;&lt;hr size=&quot;1&quot; style=&quot;border-style:solid;&quot;&gt;&lt;p style=&quot;margin:0px;margin-left:4px;&quot;&gt;&lt;font face=&quot;system-ui, -apple-system, Segoe UI, Roboto, Ubuntu, Cantarell, Noto Sans, sans-serif, Apple Color Emoji, Segoe UI Emoji, Segoe UI Symbol, Noto Color Emoji, BlinkMacSystemFont, Helvetica Neue, Arial, PingFang SC, PingFang TC, PingFang HK, Microsoft Yahei, Microsoft JhengHei&quot; color=&quot;rgba(0, 0, 0, 0.85)&quot;&gt;&lt;span style=&quot;font-size: 14px; white-space: pre;&quot;&gt;+ &lt;/span&gt;&lt;/font&gt;&lt;span style=&quot;background-color: transparent; font-size: 14px; white-space: pre;&quot;&gt;&lt;font face=&quot;system-ui, -apple-system, Segoe UI, Roboto, Ubuntu, Cantarell, Noto Sans, sans-serif, Apple Color Emoji, Segoe UI Emoji, Segoe UI Symbol, Noto Color Emoji, BlinkMacSystemFont, Helvetica Neue, Arial, PingFang SC, PingFang TC, PingFang HK, Microsoft Yahei, Microsoft JhengHei&quot; color=&quot;rgba(0, 0, 0, 0.85)&quot;&gt;queryPageList&lt;br&gt;+ listSC&lt;/font&gt;&lt;/span&gt;&lt;/p&gt;" style="verticalAlign=top;align=left;overflow=fill;html=1;whiteSpace=wrap;" vertex="1" parent="1">
          <mxGeometry x="910" y="1860" width="190" height="140" as="geometry" />
        </mxCell>
        <mxCell id="bPCXKUU8ZjuMoyH03GHd-90" value="&lt;span style=&quot;color: rgba(0, 0, 0, 0.85); font-family: system-ui, -apple-system, &amp;quot;Segoe UI&amp;quot;, Roboto, Ubuntu, Cantarell, &amp;quot;Noto Sans&amp;quot;, sans-serif, &amp;quot;Apple Color Emoji&amp;quot;, &amp;quot;Segoe UI Emoji&amp;quot;, &amp;quot;Segoe UI Symbol&amp;quot;, &amp;quot;Noto Color Emoji&amp;quot;, BlinkMacSystemFont, &amp;quot;Helvetica Neue&amp;quot;, Arial, &amp;quot;PingFang SC&amp;quot;, &amp;quot;PingFang TC&amp;quot;, &amp;quot;PingFang HK&amp;quot;, &amp;quot;Microsoft Yahei&amp;quot;, &amp;quot;Microsoft JhengHei&amp;quot;; font-size: 14px; font-weight: 400; text-align: left; white-space: pre; background-color: rgb(255, 255, 255);&quot;&gt;EquipLedgerController&lt;/span&gt;" style="swimlane;fontStyle=1;align=center;verticalAlign=top;childLayout=stackLayout;horizontal=1;startSize=26;horizontalStack=0;resizeParent=1;resizeParentMax=0;resizeLast=0;collapsible=1;marginBottom=0;whiteSpace=wrap;html=1;" vertex="1" parent="1">
          <mxGeometry x="1210" y="1140" width="490" height="310" as="geometry" />
        </mxCell>
        <mxCell id="bPCXKUU8ZjuMoyH03GHd-91" value="&lt;font face=&quot;system-ui, -apple-system, Segoe UI, Roboto, Ubuntu, Cantarell, Noto Sans, sans-serif, Apple Color Emoji, Segoe UI Emoji, Segoe UI Symbol, Noto Color Emoji, BlinkMacSystemFont, Helvetica Neue, Arial, PingFang SC, PingFang TC, PingFang HK, Microsoft Yahei, Microsoft JhengHei&quot; color=&quot;rgba(0, 0, 0, 0.85)&quot;&gt;&lt;span style=&quot;font-size: 14px; white-space: pre;&quot;&gt;+ baseLocationService: BaseLocationService&lt;br&gt;+ equipLedgerService: EquipLedgerService&lt;/span&gt;&lt;/font&gt;&lt;div&gt;&lt;font face=&quot;system-ui, -apple-system, Segoe UI, Roboto, Ubuntu, Cantarell, Noto Sans, sans-serif, Apple Color Emoji, Segoe UI Emoji, Segoe UI Symbol, Noto Color Emoji, BlinkMacSystemFont, Helvetica Neue, Arial, PingFang SC, PingFang TC, PingFang HK, Microsoft Yahei, Microsoft JhengHei&quot; color=&quot;rgba(0, 0, 0, 0.85)&quot;&gt;&lt;font color=&quot;rgba(0, 0, 0, 0.85)&quot;&gt;&lt;span style=&quot;font-size: 14px; white-space: pre;&quot;&gt;+ equipComponentLedgerService: EquipComponentLedgerService&lt;/span&gt;&lt;/font&gt;&lt;/font&gt;&lt;/div&gt;" style="text;strokeColor=none;fillColor=none;align=left;verticalAlign=top;spacingLeft=4;spacingRight=4;overflow=hidden;rotatable=0;points=[[0,0.5],[1,0.5]];portConstraint=eastwest;whiteSpace=wrap;html=1;" vertex="1" parent="bPCXKUU8ZjuMoyH03GHd-90">
          <mxGeometry y="26" width="490" height="114" as="geometry" />
        </mxCell>
        <mxCell id="bPCXKUU8ZjuMoyH03GHd-92" value="" style="line;strokeWidth=1;fillColor=none;align=left;verticalAlign=middle;spacingTop=-1;spacingLeft=3;spacingRight=3;rotatable=0;labelPosition=right;points=[];portConstraint=eastwest;strokeColor=inherit;" vertex="1" parent="bPCXKUU8ZjuMoyH03GHd-90">
          <mxGeometry y="140" width="490" height="8" as="geometry" />
        </mxCell>
        <mxCell id="bPCXKUU8ZjuMoyH03GHd-93" value="&lt;font face=&quot;system-ui, -apple-system, Segoe UI, Roboto, Ubuntu, Cantarell, Noto Sans, sans-serif, Apple Color Emoji, Segoe UI Emoji, Segoe UI Symbol, Noto Color Emoji, BlinkMacSystemFont, Helvetica Neue, Arial, PingFang SC, PingFang TC, PingFang HK, Microsoft Yahei, Microsoft JhengHei&quot; color=&quot;rgba(0, 0, 0, 0.85)&quot;&gt;&lt;span style=&quot;font-size: 14px; white-space: pre;&quot;&gt;+ queryPageList(EquipLedger, Integer, Integer, HttpServletRequest)&lt;br/&gt;+ queryById(@RequestParam(&quot;id&quot;) String)&lt;br/&gt;+ add(@RequestBody @Validated EquipLedger)&lt;br/&gt;+ delete(@RequestParam(&quot;id&quot;) String)&lt;br/&gt;+ deleteBatch(@RequestParam(&quot;ids&quot;) String)&lt;br/&gt;+ edit(@RequestBody @Validated EquipLedger)&lt;br/&gt;+ listByStationId(@RequestParam(&quot;stationId&quot;) String)&lt;/span&gt;&lt;/font&gt;" style="text;strokeColor=none;fillColor=none;align=left;verticalAlign=top;spacingLeft=4;spacingRight=4;overflow=hidden;rotatable=0;points=[[0,0.5],[1,0.5]];portConstraint=eastwest;whiteSpace=wrap;html=1;" vertex="1" parent="bPCXKUU8ZjuMoyH03GHd-90">
          <mxGeometry y="148" width="490" height="162" as="geometry" />
        </mxCell>
        <mxCell id="bPCXKUU8ZjuMoyH03GHd-94" value="&lt;p style=&quot;margin:0px;margin-top:4px;text-align:center;&quot;&gt;&lt;i&gt;&amp;lt;&amp;lt;Interface&amp;gt;&amp;gt;&lt;/i&gt;&lt;br&gt;&lt;span style=&quot;color: rgba(0, 0, 0, 0.85); font-family: system-ui, -apple-system, &amp;quot;Segoe UI&amp;quot;, Roboto, Ubuntu, Cantarell, &amp;quot;Noto Sans&amp;quot;, sans-serif, &amp;quot;Apple Color Emoji&amp;quot;, &amp;quot;Segoe UI Emoji&amp;quot;, &amp;quot;Segoe UI Symbol&amp;quot;, &amp;quot;Noto Color Emoji&amp;quot;, BlinkMacSystemFont, &amp;quot;Helvetica Neue&amp;quot;, Arial, &amp;quot;PingFang SC&amp;quot;, &amp;quot;PingFang TC&amp;quot;, &amp;quot;PingFang HK&amp;quot;, &amp;quot;Microsoft Yahei&amp;quot;, &amp;quot;Microsoft JhengHei&amp;quot;; font-size: 14px; text-align: left; white-space: pre;&quot;&gt;EquipLedgerService&lt;/span&gt;&lt;/p&gt;&lt;hr size=&quot;1&quot; style=&quot;border-style:solid;&quot;&gt;&lt;p style=&quot;margin:0px;margin-left:4px;&quot;&gt;&lt;span style=&quot;background-color: rgb(255, 255, 255); color: rgba(0, 0, 0, 0.85);&quot;&gt;&lt;br&gt;&lt;br&gt;&lt;/span&gt;&lt;/p&gt;" style="verticalAlign=top;align=left;overflow=fill;html=1;whiteSpace=wrap;" vertex="1" parent="1">
          <mxGeometry x="1160" y="1500" width="190" height="140" as="geometry" />
        </mxCell>
        <mxCell id="bPCXKUU8ZjuMoyH03GHd-95" value="&lt;p style=&quot;margin:0px;margin-top:4px;text-align:center;&quot;&gt;&lt;i&gt;&amp;lt;&amp;lt;Interface&amp;gt;&amp;gt;&lt;/i&gt;&lt;br&gt;&lt;span style=&quot;color: rgba(0, 0, 0, 0.85); font-family: system-ui, -apple-system, &amp;quot;Segoe UI&amp;quot;, Roboto, Ubuntu, Cantarell, &amp;quot;Noto Sans&amp;quot;, sans-serif, &amp;quot;Apple Color Emoji&amp;quot;, &amp;quot;Segoe UI Emoji&amp;quot;, &amp;quot;Segoe UI Symbol&amp;quot;, &amp;quot;Noto Color Emoji&amp;quot;, BlinkMacSystemFont, &amp;quot;Helvetica Neue&amp;quot;, Arial, &amp;quot;PingFang SC&amp;quot;, &amp;quot;PingFang TC&amp;quot;, &amp;quot;PingFang HK&amp;quot;, &amp;quot;Microsoft Yahei&amp;quot;, &amp;quot;Microsoft JhengHei&amp;quot;; font-size: 14px; text-align: left; white-space: pre;&quot;&gt;BaseLocationService&lt;/span&gt;&lt;/p&gt;&lt;hr size=&quot;1&quot; style=&quot;border-style:solid;&quot;&gt;&lt;p style=&quot;margin:0px;margin-left:4px;&quot;&gt;&lt;br&gt;&lt;/p&gt;" style="verticalAlign=top;align=left;overflow=fill;html=1;whiteSpace=wrap;" vertex="1" parent="1">
          <mxGeometry x="1380" y="1500" width="190" height="140" as="geometry" />
        </mxCell>
        <mxCell id="bPCXKUU8ZjuMoyH03GHd-96" value="&lt;p style=&quot;margin:0px;margin-top:4px;text-align:center;&quot;&gt;&lt;i&gt;&amp;lt;&amp;lt;Interface&amp;gt;&amp;gt;&lt;/i&gt;&lt;br&gt;&lt;span style=&quot;color: rgba(0, 0, 0, 0.85); font-family: system-ui, -apple-system, &amp;quot;Segoe UI&amp;quot;, Roboto, Ubuntu, Cantarell, &amp;quot;Noto Sans&amp;quot;, sans-serif, &amp;quot;Apple Color Emoji&amp;quot;, &amp;quot;Segoe UI Emoji&amp;quot;, &amp;quot;Segoe UI Symbol&amp;quot;, &amp;quot;Noto Color Emoji&amp;quot;, BlinkMacSystemFont, &amp;quot;Helvetica Neue&amp;quot;, Arial, &amp;quot;PingFang SC&amp;quot;, &amp;quot;PingFang TC&amp;quot;, &amp;quot;PingFang HK&amp;quot;, &amp;quot;Microsoft Yahei&amp;quot;, &amp;quot;Microsoft JhengHei&amp;quot;; font-size: 14px; text-align: left; white-space: pre;&quot;&gt;EquipComponentLedgerService&lt;/span&gt;&lt;/p&gt;&lt;hr size=&quot;1&quot; style=&quot;border-style:solid;&quot;&gt;&lt;p style=&quot;margin:0px;margin-left:4px;&quot;&gt;&lt;br&gt;&lt;/p&gt;" style="verticalAlign=top;align=left;overflow=fill;html=1;whiteSpace=wrap;" vertex="1" parent="1">
          <mxGeometry x="1590" y="1500" width="190" height="140" as="geometry" />
        </mxCell>
        <mxCell id="bPCXKUU8ZjuMoyH03GHd-97" value="" style="endArrow=classic;html=1;rounded=0;entryX=0.5;entryY=0;entryDx=0;entryDy=0;exitX=0.49;exitY=1.007;exitDx=0;exitDy=0;exitPerimeter=0;" edge="1" source="bPCXKUU8ZjuMoyH03GHd-93" target="bPCXKUU8ZjuMoyH03GHd-94" parent="1">
          <mxGeometry relative="1" as="geometry">
            <mxPoint x="1410" y="1530" as="sourcePoint" />
            <mxPoint x="1570" y="1530" as="targetPoint" />
          </mxGeometry>
        </mxCell>
        <mxCell id="bPCXKUU8ZjuMoyH03GHd-98" value="use" style="edgeLabel;resizable=0;html=1;;align=center;verticalAlign=middle;" connectable="0" vertex="1" parent="bPCXKUU8ZjuMoyH03GHd-97">
          <mxGeometry relative="1" as="geometry" />
        </mxCell>
        <mxCell id="bPCXKUU8ZjuMoyH03GHd-99" value="" style="endArrow=classic;html=1;rounded=0;entryX=0.5;entryY=0;entryDx=0;entryDy=0;exitX=0.483;exitY=1.001;exitDx=0;exitDy=0;exitPerimeter=0;" edge="1" source="bPCXKUU8ZjuMoyH03GHd-93" target="bPCXKUU8ZjuMoyH03GHd-95" parent="1">
          <mxGeometry relative="1" as="geometry">
            <mxPoint x="1450" y="1560" as="sourcePoint" />
            <mxPoint x="1430" y="1668" as="targetPoint" />
          </mxGeometry>
        </mxCell>
        <mxCell id="bPCXKUU8ZjuMoyH03GHd-100" value="use" style="edgeLabel;resizable=0;html=1;;align=center;verticalAlign=middle;" connectable="0" vertex="1" parent="bPCXKUU8ZjuMoyH03GHd-99">
          <mxGeometry relative="1" as="geometry" />
        </mxCell>
        <mxCell id="bPCXKUU8ZjuMoyH03GHd-101" value="" style="endArrow=classic;html=1;rounded=0;entryX=0.5;entryY=0;entryDx=0;entryDy=0;exitX=0.491;exitY=1.023;exitDx=0;exitDy=0;exitPerimeter=0;" edge="1" source="bPCXKUU8ZjuMoyH03GHd-93" target="bPCXKUU8ZjuMoyH03GHd-96" parent="1">
          <mxGeometry relative="1" as="geometry">
            <mxPoint x="1450" y="1560" as="sourcePoint" />
            <mxPoint x="1570" y="1678" as="targetPoint" />
          </mxGeometry>
        </mxCell>
        <mxCell id="bPCXKUU8ZjuMoyH03GHd-102" value="use" style="edgeLabel;resizable=0;html=1;;align=center;verticalAlign=middle;" connectable="0" vertex="1" parent="bPCXKUU8ZjuMoyH03GHd-101">
          <mxGeometry relative="1" as="geometry" />
        </mxCell>
        <mxCell id="bPCXKUU8ZjuMoyH03GHd-103" style="edgeStyle=orthogonalEdgeStyle;rounded=0;orthogonalLoop=1;jettySize=auto;html=1;exitX=0.5;exitY=0;exitDx=0;exitDy=0;entryX=0.5;entryY=1;entryDx=0;entryDy=0;" edge="1" source="bPCXKUU8ZjuMoyH03GHd-104" target="bPCXKUU8ZjuMoyH03GHd-94" parent="1">
          <mxGeometry relative="1" as="geometry" />
        </mxCell>
        <mxCell id="bPCXKUU8ZjuMoyH03GHd-104" value="&lt;p style=&quot;margin:0px;margin-top:4px;text-align:center;&quot;&gt;&lt;span style=&quot;color: rgba(0, 0, 0, 0.85); font-family: system-ui, -apple-system, &amp;quot;Segoe UI&amp;quot;, Roboto, Ubuntu, Cantarell, &amp;quot;Noto Sans&amp;quot;, sans-serif, &amp;quot;Apple Color Emoji&amp;quot;, &amp;quot;Segoe UI Emoji&amp;quot;, &amp;quot;Segoe UI Symbol&amp;quot;, &amp;quot;Noto Color Emoji&amp;quot;, BlinkMacSystemFont, &amp;quot;Helvetica Neue&amp;quot;, Arial, &amp;quot;PingFang SC&amp;quot;, &amp;quot;PingFang TC&amp;quot;, &amp;quot;PingFang HK&amp;quot;, &amp;quot;Microsoft Yahei&amp;quot;, &amp;quot;Microsoft JhengHei&amp;quot;; font-size: 14px; text-align: left; white-space: pre; background-color: rgb(255, 255, 255);&quot;&gt;&lt;span style=&quot;background-color: transparent;&quot;&gt;EquipLedgerService&lt;/span&gt;Impl&lt;/span&gt;&lt;/p&gt;&lt;hr size=&quot;1&quot; style=&quot;border-style:solid;&quot;&gt;&lt;p style=&quot;margin:0px;margin-left:4px;&quot;&gt;&lt;span style=&quot;background-color: rgb(255, 255, 255); color: rgba(0, 0, 0, 0.85);&quot;&gt;&lt;br&gt;&lt;br&gt;&lt;/span&gt;&lt;/p&gt;" style="verticalAlign=top;align=left;overflow=fill;html=1;whiteSpace=wrap;" vertex="1" parent="1">
          <mxGeometry x="1160" y="1680" width="190" height="140" as="geometry" />
        </mxCell>
        <mxCell id="bPCXKUU8ZjuMoyH03GHd-105" style="edgeStyle=orthogonalEdgeStyle;rounded=0;orthogonalLoop=1;jettySize=auto;html=1;exitX=0.5;exitY=0;exitDx=0;exitDy=0;entryX=0.5;entryY=1;entryDx=0;entryDy=0;" edge="1" source="bPCXKUU8ZjuMoyH03GHd-106" target="bPCXKUU8ZjuMoyH03GHd-95" parent="1">
          <mxGeometry relative="1" as="geometry" />
        </mxCell>
        <mxCell id="bPCXKUU8ZjuMoyH03GHd-106" value="&lt;p style=&quot;margin:0px;margin-top:4px;text-align:center;&quot;&gt;&lt;span style=&quot;background-color: rgb(255, 255, 255); color: rgba(0, 0, 0, 0.85); font-family: system-ui, -apple-system, &amp;quot;Segoe UI&amp;quot;, Roboto, Ubuntu, Cantarell, &amp;quot;Noto Sans&amp;quot;, sans-serif, &amp;quot;Apple Color Emoji&amp;quot;, &amp;quot;Segoe UI Emoji&amp;quot;, &amp;quot;Segoe UI Symbol&amp;quot;, &amp;quot;Noto Color Emoji&amp;quot;, BlinkMacSystemFont, &amp;quot;Helvetica Neue&amp;quot;, Arial, &amp;quot;PingFang SC&amp;quot;, &amp;quot;PingFang TC&amp;quot;, &amp;quot;PingFang HK&amp;quot;, &amp;quot;Microsoft Yahei&amp;quot;, &amp;quot;Microsoft JhengHei&amp;quot;; font-size: 14px; white-space: pre; text-align: left;&quot;&gt;&lt;span style=&quot;background-color: transparent;&quot;&gt;BaseLocation&lt;/span&gt;Impl&lt;/span&gt;&lt;/p&gt;&lt;hr size=&quot;1&quot; style=&quot;border-style:solid;&quot;&gt;&lt;p style=&quot;margin:0px;margin-left:4px;&quot;&gt;&lt;br&gt;&lt;/p&gt;" style="verticalAlign=top;align=left;overflow=fill;html=1;whiteSpace=wrap;" vertex="1" parent="1">
          <mxGeometry x="1380" y="1680" width="190" height="140" as="geometry" />
        </mxCell>
        <mxCell id="bPCXKUU8ZjuMoyH03GHd-107" style="edgeStyle=orthogonalEdgeStyle;rounded=0;orthogonalLoop=1;jettySize=auto;html=1;exitX=0.5;exitY=0;exitDx=0;exitDy=0;entryX=0.5;entryY=1;entryDx=0;entryDy=0;" edge="1" source="bPCXKUU8ZjuMoyH03GHd-108" target="bPCXKUU8ZjuMoyH03GHd-96" parent="1">
          <mxGeometry relative="1" as="geometry" />
        </mxCell>
        <mxCell id="bPCXKUU8ZjuMoyH03GHd-108" value="&lt;p style=&quot;margin:0px;margin-top:4px;text-align:center;&quot;&gt;&lt;span style=&quot;color: rgba(0, 0, 0, 0.85); font-family: system-ui, -apple-system, &amp;quot;Segoe UI&amp;quot;, Roboto, Ubuntu, Cantarell, &amp;quot;Noto Sans&amp;quot;, sans-serif, &amp;quot;Apple Color Emoji&amp;quot;, &amp;quot;Segoe UI Emoji&amp;quot;, &amp;quot;Segoe UI Symbol&amp;quot;, &amp;quot;Noto Color Emoji&amp;quot;, BlinkMacSystemFont, &amp;quot;Helvetica Neue&amp;quot;, Arial, &amp;quot;PingFang SC&amp;quot;, &amp;quot;PingFang TC&amp;quot;, &amp;quot;PingFang HK&amp;quot;, &amp;quot;Microsoft Yahei&amp;quot;, &amp;quot;Microsoft JhengHei&amp;quot;; font-size: 14px; text-align: left; white-space: pre; background-color: rgb(255, 255, 255);&quot;&gt;&lt;span style=&quot;background-color: transparent;&quot;&gt;EquipComponentLedger&lt;/span&gt;Service&lt;/span&gt;&lt;span style=&quot;background-color: rgb(255, 255, 255); color: rgba(0, 0, 0, 0.85); font-family: system-ui, -apple-system, &amp;quot;Segoe UI&amp;quot;, Roboto, Ubuntu, Cantarell, &amp;quot;Noto Sans&amp;quot;, sans-serif, &amp;quot;Apple Color Emoji&amp;quot;, &amp;quot;Segoe UI Emoji&amp;quot;, &amp;quot;Segoe UI Symbol&amp;quot;, &amp;quot;Noto Color Emoji&amp;quot;, BlinkMacSystemFont, &amp;quot;Helvetica Neue&amp;quot;, Arial, &amp;quot;PingFang SC&amp;quot;, &amp;quot;PingFang TC&amp;quot;, &amp;quot;PingFang HK&amp;quot;, &amp;quot;Microsoft Yahei&amp;quot;, &amp;quot;Microsoft JhengHei&amp;quot;; font-size: 14px; white-space: pre; text-align: left;&quot;&gt;Impl&lt;/span&gt;&lt;/p&gt;&lt;hr size=&quot;1&quot; style=&quot;border-style:solid;&quot;&gt;&lt;p style=&quot;margin:0px;margin-left:4px;&quot;&gt;&lt;/p&gt;&lt;p style=&quot;margin:0px;margin-left:4px;&quot;&gt;&lt;br&gt;&lt;/p&gt;" style="verticalAlign=top;align=left;overflow=fill;html=1;whiteSpace=wrap;" vertex="1" parent="1">
          <mxGeometry x="1590" y="1680" width="190" height="140" as="geometry" />
        </mxCell>
        <mxCell id="bPCXKUU8ZjuMoyH03GHd-109" style="edgeStyle=orthogonalEdgeStyle;rounded=0;orthogonalLoop=1;jettySize=auto;html=1;exitX=0.5;exitY=0;exitDx=0;exitDy=0;" edge="1" source="bPCXKUU8ZjuMoyH03GHd-110" target="bPCXKUU8ZjuMoyH03GHd-104" parent="1">
          <mxGeometry relative="1" as="geometry" />
        </mxCell>
        <mxCell id="bPCXKUU8ZjuMoyH03GHd-110" value="&lt;p style=&quot;margin:0px;margin-top:4px;text-align:center;&quot;&gt;&lt;i&gt;&amp;lt;&amp;lt;Interface&amp;gt;&amp;gt;&lt;/i&gt;&lt;/p&gt;&lt;p style=&quot;margin:0px;margin-top:4px;text-align:center;&quot;&gt;&lt;span style=&quot;color: rgba(0, 0, 0, 0.85); font-family: system-ui, -apple-system, &amp;quot;Segoe UI&amp;quot;, Roboto, Ubuntu, Cantarell, &amp;quot;Noto Sans&amp;quot;, sans-serif, &amp;quot;Apple Color Emoji&amp;quot;, &amp;quot;Segoe UI Emoji&amp;quot;, &amp;quot;Segoe UI Symbol&amp;quot;, &amp;quot;Noto Color Emoji&amp;quot;, BlinkMacSystemFont, &amp;quot;Helvetica Neue&amp;quot;, Arial, &amp;quot;PingFang SC&amp;quot;, &amp;quot;PingFang TC&amp;quot;, &amp;quot;PingFang HK&amp;quot;, &amp;quot;Microsoft Yahei&amp;quot;, &amp;quot;Microsoft JhengHei&amp;quot;; font-size: 14px; text-align: left; white-space: pre; background-color: rgb(255, 255, 255);&quot;&gt;&lt;span style=&quot;background-color: transparent;&quot;&gt;EquipLedger&lt;/span&gt;Mapper&lt;/span&gt;&lt;/p&gt;&lt;hr size=&quot;1&quot; style=&quot;border-style:solid;&quot;&gt;&lt;p style=&quot;margin:0px;margin-left:4px;&quot;&gt;&lt;span style=&quot;background-color: rgb(255, 255, 255); color: rgba(0, 0, 0, 0.85);&quot;&gt;&lt;br&gt;&lt;br&gt;&lt;/span&gt;&lt;/p&gt;" style="verticalAlign=top;align=left;overflow=fill;html=1;whiteSpace=wrap;" vertex="1" parent="1">
          <mxGeometry x="1160" y="1860" width="190" height="140" as="geometry" />
        </mxCell>
        <mxCell id="bPCXKUU8ZjuMoyH03GHd-111" style="edgeStyle=orthogonalEdgeStyle;rounded=0;orthogonalLoop=1;jettySize=auto;html=1;exitX=0.5;exitY=0;exitDx=0;exitDy=0;entryX=0.5;entryY=1;entryDx=0;entryDy=0;" edge="1" source="bPCXKUU8ZjuMoyH03GHd-112" target="bPCXKUU8ZjuMoyH03GHd-106" parent="1">
          <mxGeometry relative="1" as="geometry" />
        </mxCell>
        <mxCell id="bPCXKUU8ZjuMoyH03GHd-112" value="&lt;p style=&quot;margin:0px;margin-top:4px;text-align:center;&quot;&gt;&lt;i&gt;&amp;lt;&amp;lt;Interface&amp;gt;&amp;gt;&lt;/i&gt;&lt;/p&gt;&lt;p style=&quot;margin:0px;margin-top:4px;text-align:center;&quot;&gt;&lt;span style=&quot;background-color: rgb(255, 255, 255); color: rgba(0, 0, 0, 0.85); font-family: system-ui, -apple-system, &amp;quot;Segoe UI&amp;quot;, Roboto, Ubuntu, Cantarell, &amp;quot;Noto Sans&amp;quot;, sans-serif, &amp;quot;Apple Color Emoji&amp;quot;, &amp;quot;Segoe UI Emoji&amp;quot;, &amp;quot;Segoe UI Symbol&amp;quot;, &amp;quot;Noto Color Emoji&amp;quot;, BlinkMacSystemFont, &amp;quot;Helvetica Neue&amp;quot;, Arial, &amp;quot;PingFang SC&amp;quot;, &amp;quot;PingFang TC&amp;quot;, &amp;quot;PingFang HK&amp;quot;, &amp;quot;Microsoft Yahei&amp;quot;, &amp;quot;Microsoft JhengHei&amp;quot;; font-size: 14px; white-space: pre; text-align: left;&quot;&gt;&lt;span style=&quot;background-color: transparent;&quot;&gt;BaseLocation&lt;/span&gt;Mapper&lt;/span&gt;&lt;/p&gt;&lt;hr size=&quot;1&quot; style=&quot;border-style:solid;&quot;&gt;&lt;p style=&quot;margin:0px;margin-left:4px;&quot;&gt;&lt;br&gt;&lt;/p&gt;" style="verticalAlign=top;align=left;overflow=fill;html=1;whiteSpace=wrap;" vertex="1" parent="1">
          <mxGeometry x="1380" y="1860" width="190" height="140" as="geometry" />
        </mxCell>
        <mxCell id="bPCXKUU8ZjuMoyH03GHd-113" style="edgeStyle=orthogonalEdgeStyle;rounded=0;orthogonalLoop=1;jettySize=auto;html=1;exitX=0.5;exitY=0;exitDx=0;exitDy=0;" edge="1" source="bPCXKUU8ZjuMoyH03GHd-114" target="bPCXKUU8ZjuMoyH03GHd-108" parent="1">
          <mxGeometry relative="1" as="geometry" />
        </mxCell>
        <mxCell id="bPCXKUU8ZjuMoyH03GHd-114" value="&lt;p style=&quot;margin:0px;margin-top:4px;text-align:center;&quot;&gt;&lt;i&gt;&amp;lt;&amp;lt;Interface&amp;gt;&amp;gt;&lt;/i&gt;&lt;/p&gt;&lt;p style=&quot;margin:0px;margin-top:4px;text-align:center;&quot;&gt;&lt;span style=&quot;background-color: rgb(255, 255, 255); color: rgba(0, 0, 0, 0.85); font-family: system-ui, -apple-system, &amp;quot;Segoe UI&amp;quot;, Roboto, Ubuntu, Cantarell, &amp;quot;Noto Sans&amp;quot;, sans-serif, &amp;quot;Apple Color Emoji&amp;quot;, &amp;quot;Segoe UI Emoji&amp;quot;, &amp;quot;Segoe UI Symbol&amp;quot;, &amp;quot;Noto Color Emoji&amp;quot;, BlinkMacSystemFont, &amp;quot;Helvetica Neue&amp;quot;, Arial, &amp;quot;PingFang SC&amp;quot;, &amp;quot;PingFang TC&amp;quot;, &amp;quot;PingFang HK&amp;quot;, &amp;quot;Microsoft Yahei&amp;quot;, &amp;quot;Microsoft JhengHei&amp;quot;; font-size: 14px; white-space: pre; text-align: left;&quot;&gt;&lt;span style=&quot;background-color: transparent;&quot;&gt;EquipComponentLedger&lt;/span&gt;Mapper&lt;/span&gt;&lt;/p&gt;&lt;hr size=&quot;1&quot; style=&quot;border-style:solid;&quot;&gt;&lt;p style=&quot;margin:0px;margin-left:4px;&quot;&gt;&lt;br&gt;&lt;/p&gt;" style="verticalAlign=top;align=left;overflow=fill;html=1;whiteSpace=wrap;" vertex="1" parent="1">
          <mxGeometry x="1590" y="1860" width="190" height="140" as="geometry" />
        </mxCell>
        <mxCell id="bPCXKUU8ZjuMoyH03GHd-115" value="&lt;span style=&quot;color: rgba(0, 0, 0, 0.85); font-family: system-ui, -apple-system, &amp;quot;Segoe UI&amp;quot;, Roboto, Ubuntu, Cantarell, &amp;quot;Noto Sans&amp;quot;, sans-serif, &amp;quot;Apple Color Emoji&amp;quot;, &amp;quot;Segoe UI Emoji&amp;quot;, &amp;quot;Segoe UI Symbol&amp;quot;, &amp;quot;Noto Color Emoji&amp;quot;, BlinkMacSystemFont, &amp;quot;Helvetica Neue&amp;quot;, Arial, &amp;quot;PingFang SC&amp;quot;, &amp;quot;PingFang TC&amp;quot;, &amp;quot;PingFang HK&amp;quot;, &amp;quot;Microsoft Yahei&amp;quot;, &amp;quot;Microsoft JhengHei&amp;quot;; font-size: 14px; font-weight: 400; text-align: left; white-space: pre; background-color: rgb(255, 255, 255);&quot;&gt;DeviceAlarmController&lt;/span&gt;" style="swimlane;fontStyle=1;align=center;verticalAlign=top;childLayout=stackLayout;horizontal=1;startSize=26;horizontalStack=0;resizeParent=1;resizeParentMax=0;resizeLast=0;collapsible=1;marginBottom=0;whiteSpace=wrap;html=1;" vertex="1" parent="1">
          <mxGeometry x="515" y="2130" width="490" height="400" as="geometry" />
        </mxCell>
        <mxCell id="bPCXKUU8ZjuMoyH03GHd-116" value="&lt;font face=&quot;system-ui, -apple-system, Segoe UI, Roboto, Ubuntu, Cantarell, Noto Sans, sans-serif, Apple Color Emoji, Segoe UI Emoji, Segoe UI Symbol, Noto Color Emoji, BlinkMacSystemFont, Helvetica Neue, Arial, PingFang SC, PingFang TC, PingFang HK, Microsoft Yahei, Microsoft JhengHei&quot; color=&quot;rgba(0, 0, 0, 0.85)&quot;&gt;&lt;span style=&quot;font-size: 14px; white-space: pre;&quot;&gt;+ tsWorkOrderService: TsWorkOrderService&lt;/span&gt;&lt;/font&gt;&lt;div&gt;&lt;font face=&quot;system-ui, -apple-system, Segoe UI, Roboto, Ubuntu, Cantarell, Noto Sans, sans-serif, Apple Color Emoji, Segoe UI Emoji, Segoe UI Symbol, Noto Color Emoji, BlinkMacSystemFont, Helvetica Neue, Arial, PingFang SC, PingFang TC, PingFang HK, Microsoft Yahei, Microsoft JhengHei&quot; color=&quot;rgba(0, 0, 0, 0.85)&quot;&gt;&lt;span style=&quot;font-size: 14px; white-space: pre;&quot;&gt;+ tsWorkOrderInspectService: TsWorkOrderInspectService&lt;/span&gt;&lt;span style=&quot;font-size: 14px; white-space: pre;&quot;&gt;&lt;/span&gt;&lt;/font&gt;&lt;/div&gt;&lt;div&gt;&lt;font face=&quot;system-ui, -apple-system, Segoe UI, Roboto, Ubuntu, Cantarell, Noto Sans, sans-serif, Apple Color Emoji, Segoe UI Emoji, Segoe UI Symbol, Noto Color Emoji, BlinkMacSystemFont, Helvetica Neue, Arial, PingFang SC, PingFang TC, PingFang HK, Microsoft Yahei, Microsoft JhengHei&quot; color=&quot;rgba(0, 0, 0, 0.85)&quot;&gt;&lt;span style=&quot;font-size: 14px; white-space: pre;&quot;&gt;+ tsWorkOrderMaintainService: TsWorkOrderMaintainService&lt;/span&gt;&lt;span style=&quot;font-size: 14px; white-space: pre;&quot;&gt;&lt;/span&gt;&lt;/font&gt;&lt;/div&gt;&lt;div&gt;&lt;font face=&quot;system-ui, -apple-system, Segoe UI, Roboto, Ubuntu, Cantarell, Noto Sans, sans-serif, Apple Color Emoji, Segoe UI Emoji, Segoe UI Symbol, Noto Color Emoji, BlinkMacSystemFont, Helvetica Neue, Arial, PingFang SC, PingFang TC, PingFang HK, Microsoft Yahei, Microsoft JhengHei&quot; color=&quot;rgba(0, 0, 0, 0.85)&quot;&gt;&lt;span style=&quot;font-size: 14px; white-space: pre;&quot;&gt;+ tsWorkOrderRepairService: TsWorkOrderRepairService&lt;/span&gt;&lt;span style=&quot;font-size: 14px; white-space: pre;&quot;&gt;&lt;/span&gt;&lt;/font&gt;&lt;/div&gt;&lt;div&gt;&lt;font face=&quot;system-ui, -apple-system, Segoe UI, Roboto, Ubuntu, Cantarell, Noto Sans, sans-serif, Apple Color Emoji, Segoe UI Emoji, Segoe UI Symbol, Noto Color Emoji, BlinkMacSystemFont, Helvetica Neue, Arial, PingFang SC, PingFang TC, PingFang HK, Microsoft Yahei, Microsoft JhengHei&quot; color=&quot;rgba(0, 0, 0, 0.85)&quot;&gt;&lt;span style=&quot;font-size: 14px; white-space: pre;&quot;&gt;&lt;br&gt;&lt;/span&gt;&lt;/font&gt;&lt;/div&gt;" style="text;strokeColor=none;fillColor=none;align=left;verticalAlign=top;spacingLeft=4;spacingRight=4;overflow=hidden;rotatable=0;points=[[0,0.5],[1,0.5]];portConstraint=eastwest;whiteSpace=wrap;html=1;" vertex="1" parent="bPCXKUU8ZjuMoyH03GHd-115">
          <mxGeometry y="26" width="490" height="114" as="geometry" />
        </mxCell>
        <mxCell id="bPCXKUU8ZjuMoyH03GHd-117" value="" style="line;strokeWidth=1;fillColor=none;align=left;verticalAlign=middle;spacingTop=-1;spacingLeft=3;spacingRight=3;rotatable=0;labelPosition=right;points=[];portConstraint=eastwest;strokeColor=inherit;" vertex="1" parent="bPCXKUU8ZjuMoyH03GHd-115">
          <mxGeometry y="140" width="490" height="8" as="geometry" />
        </mxCell>
        <mxCell id="bPCXKUU8ZjuMoyH03GHd-118" value="&lt;font face=&quot;system-ui, -apple-system, Segoe UI, Roboto, Ubuntu, Cantarell, Noto Sans, sans-serif, Apple Color Emoji, Segoe UI Emoji, Segoe UI Symbol, Noto Color Emoji, BlinkMacSystemFont, Helvetica Neue, Arial, PingFang SC, PingFang TC, PingFang HK, Microsoft Yahei, Microsoft JhengHei&quot; color=&quot;rgba(0, 0, 0, 0.85)&quot;&gt;&lt;span style=&quot;font-size: 14px; white-space: pre;&quot;&gt;+ queryPageList(TsWorkOrder, Integer, Integer, HttpServletRequest)&lt;br/&gt;+ mobileList(TsWorkOrder, Integer, Integer, HttpServletRequest)&lt;br/&gt;+ queryById(@RequestParam(name = &quot;id&quot;) String)&lt;br/&gt;+ add(@RequestBody @Validated TsWorkOrder)&lt;br/&gt;+ delete(@RequestParam(&quot;id&quot;) String)&lt;br/&gt;+ deleteBatch(@RequestParam(&quot;ids&quot;) String)&lt;br/&gt;+ edit(@RequestBody @Validated TsWorkOrder)&lt;br/&gt;+ getRepairDetailById(@RequestParam(name = &quot;id&quot;) String)&lt;br/&gt;+ getRepairDealById(@RequestParam(name = &quot;id&quot;) String)&lt;br/&gt;+ getRepairAcceptanceById(@RequestParam(name = &quot;id&quot;) String)&lt;br/&gt;+ getInspectDetailById(@RequestParam(name = &quot;id&quot;) String)&lt;br/&gt;+ getMaintainDetailById(@RequestParam(name = &quot;id&quot;) String)&lt;br/&gt;+ assign(@RequestParam(name = &quot;workOrderId&quot;) String, @RequestParam(name = &quot;teamId&quot;) String)&lt;/span&gt;&lt;/font&gt;" style="text;strokeColor=none;fillColor=none;align=left;verticalAlign=top;spacingLeft=4;spacingRight=4;overflow=hidden;rotatable=0;points=[[0,0.5],[1,0.5]];portConstraint=eastwest;whiteSpace=wrap;html=1;" vertex="1" parent="bPCXKUU8ZjuMoyH03GHd-115">
          <mxGeometry y="148" width="490" height="252" as="geometry" />
        </mxCell>
        <mxCell id="bPCXKUU8ZjuMoyH03GHd-119" value="&lt;p style=&quot;margin:0px;margin-top:4px;text-align:center;&quot;&gt;&lt;i&gt;&amp;lt;&amp;lt;Interface&amp;gt;&amp;gt;&lt;/i&gt;&lt;br&gt;&lt;span style=&quot;color: rgba(0, 0, 0, 0.85); font-family: system-ui, -apple-system, &amp;quot;Segoe UI&amp;quot;, Roboto, Ubuntu, Cantarell, &amp;quot;Noto Sans&amp;quot;, sans-serif, &amp;quot;Apple Color Emoji&amp;quot;, &amp;quot;Segoe UI Emoji&amp;quot;, &amp;quot;Segoe UI Symbol&amp;quot;, &amp;quot;Noto Color Emoji&amp;quot;, BlinkMacSystemFont, &amp;quot;Helvetica Neue&amp;quot;, Arial, &amp;quot;PingFang SC&amp;quot;, &amp;quot;PingFang TC&amp;quot;, &amp;quot;PingFang HK&amp;quot;, &amp;quot;Microsoft Yahei&amp;quot;, &amp;quot;Microsoft JhengHei&amp;quot;; font-size: 14px; text-align: left; white-space: pre;&quot;&gt;DeviceAlarmService&lt;/span&gt;&lt;/p&gt;&lt;hr size=&quot;1&quot; style=&quot;border-style:solid;&quot;&gt;&lt;p style=&quot;margin:0px;margin-left:4px;&quot;&gt;&lt;span style=&quot;background-color: rgb(255, 255, 255); color: rgba(0, 0, 0, 0.85);&quot;&gt;&amp;nbsp;&lt;/span&gt;&lt;span style=&quot;background-color: rgb(255, 255, 255); color: rgba(0, 0, 0, 0.85);&quot;&gt;&lt;font face=&quot;system-ui, -apple-system, Segoe UI, Roboto, Ubuntu, Cantarell, Noto Sans, sans-serif, Apple Color Emoji, Segoe UI Emoji, Segoe UI Symbol, Noto Color Emoji, BlinkMacSystemFont, Helvetica Neue, Arial, PingFang SC, PingFang TC, PingFang HK, Microsoft Yahei, Microsoft JhengHei&quot; color=&quot;rgba(0, 0, 0, 0.85)&quot;&gt;&lt;span style=&quot;font-size: 14px; white-space: pre;&quot;&gt;+ assign&lt;br/&gt;+ checkAndSave&lt;/span&gt;&lt;/font&gt;&lt;br&gt;&lt;br&gt;&lt;/span&gt;&lt;/p&gt;" style="verticalAlign=top;align=left;overflow=fill;html=1;whiteSpace=wrap;" vertex="1" parent="1">
          <mxGeometry x="450" y="2608.87" width="190" height="140" as="geometry" />
        </mxCell>
        <mxCell id="bPCXKUU8ZjuMoyH03GHd-120" value="&lt;p style=&quot;margin:0px;margin-top:4px;text-align:center;&quot;&gt;&lt;i&gt;&amp;lt;&amp;lt;Interface&amp;gt;&amp;gt;&lt;/i&gt;&lt;br&gt;&lt;span style=&quot;color: rgba(0, 0, 0, 0.85); font-family: system-ui, -apple-system, &amp;quot;Segoe UI&amp;quot;, Roboto, Ubuntu, Cantarell, &amp;quot;Noto Sans&amp;quot;, sans-serif, &amp;quot;Apple Color Emoji&amp;quot;, &amp;quot;Segoe UI Emoji&amp;quot;, &amp;quot;Segoe UI Symbol&amp;quot;, &amp;quot;Noto Color Emoji&amp;quot;, BlinkMacSystemFont, &amp;quot;Helvetica Neue&amp;quot;, Arial, &amp;quot;PingFang SC&amp;quot;, &amp;quot;PingFang TC&amp;quot;, &amp;quot;PingFang HK&amp;quot;, &amp;quot;Microsoft Yahei&amp;quot;, &amp;quot;Microsoft JhengHei&amp;quot;; font-size: 14px; text-align: left; white-space: pre;&quot;&gt;MlcAlarmService&lt;/span&gt;&lt;/p&gt;&lt;hr size=&quot;1&quot; style=&quot;border-style:solid;&quot;&gt;&lt;p style=&quot;margin:0px;margin-left:4px;&quot;&gt;&amp;nbsp;&lt;font face=&quot;system-ui, -apple-system, Segoe UI, Roboto, Ubuntu, Cantarell, Noto Sans, sans-serif, Apple Color Emoji, Segoe UI Emoji, Segoe UI Symbol, Noto Color Emoji, BlinkMacSystemFont, Helvetica Neue, Arial, PingFang SC, PingFang TC, PingFang HK, Microsoft Yahei, Microsoft JhengHei&quot; color=&quot;rgba(0, 0, 0, 0.85)&quot;&gt;&lt;span style=&quot;font-size: 14px; white-space: pre;&quot;&gt;+ getMaintainDetailById&lt;br/&gt;+ groupCountStatus&lt;/span&gt;&lt;/font&gt;&lt;/p&gt;" style="verticalAlign=top;align=left;overflow=fill;html=1;whiteSpace=wrap;" vertex="1" parent="1">
          <mxGeometry x="670" y="2608.87" width="190" height="140" as="geometry" />
        </mxCell>
        <mxCell id="bPCXKUU8ZjuMoyH03GHd-121" value="&lt;p style=&quot;margin:0px;margin-top:4px;text-align:center;&quot;&gt;&lt;i&gt;&amp;lt;&amp;lt;Interface&amp;gt;&amp;gt;&lt;/i&gt;&lt;br&gt;&lt;span style=&quot;color: rgba(0, 0, 0, 0.85); font-family: system-ui, -apple-system, &amp;quot;Segoe UI&amp;quot;, Roboto, Ubuntu, Cantarell, &amp;quot;Noto Sans&amp;quot;, sans-serif, &amp;quot;Apple Color Emoji&amp;quot;, &amp;quot;Segoe UI Emoji&amp;quot;, &amp;quot;Segoe UI Symbol&amp;quot;, &amp;quot;Noto Color Emoji&amp;quot;, BlinkMacSystemFont, &amp;quot;Helvetica Neue&amp;quot;, Arial, &amp;quot;PingFang SC&amp;quot;, &amp;quot;PingFang TC&amp;quot;, &amp;quot;PingFang HK&amp;quot;, &amp;quot;Microsoft Yahei&amp;quot;, &amp;quot;Microsoft JhengHei&amp;quot;; font-size: 14px; text-align: left; white-space: pre;&quot;&gt;MlcAlarmIgnoreService&lt;/span&gt;&lt;/p&gt;&lt;hr size=&quot;1&quot; style=&quot;border-style:solid;&quot;&gt;&lt;p style=&quot;margin:0px;margin-left:4px;&quot;&gt;&amp;nbsp;&lt;font face=&quot;system-ui, -apple-system, Segoe UI, Roboto, Ubuntu, Cantarell, Noto Sans, sans-serif, Apple Color Emoji, Segoe UI Emoji, Segoe UI Symbol, Noto Color Emoji, BlinkMacSystemFont, Helvetica Neue, Arial, PingFang SC, PingFang TC, PingFang HK, Microsoft Yahei, Microsoft JhengHei&quot; color=&quot;rgba(0, 0, 0, 0.85)&quot;&gt;&lt;span style=&quot;font-size: 14px; white-space: pre;&quot;&gt;+ getRepairDetailById&lt;br/&gt;+ getRepairDealById&lt;br/&gt;+ getRepairAcceptanceById&lt;br/&gt;+ getInspectDetailById&lt;/span&gt;&lt;/font&gt;&lt;/p&gt;" style="verticalAlign=top;align=left;overflow=fill;html=1;whiteSpace=wrap;" vertex="1" parent="1">
          <mxGeometry x="880" y="2608.87" width="190" height="140" as="geometry" />
        </mxCell>
        <mxCell id="bPCXKUU8ZjuMoyH03GHd-122" value="" style="endArrow=classic;html=1;rounded=0;entryX=0.5;entryY=0;entryDx=0;entryDy=0;exitX=0.49;exitY=0.992;exitDx=0;exitDy=0;exitPerimeter=0;" edge="1" source="bPCXKUU8ZjuMoyH03GHd-118" target="bPCXKUU8ZjuMoyH03GHd-119" parent="1">
          <mxGeometry relative="1" as="geometry">
            <mxPoint x="740.0999999999999" y="2560.004" as="sourcePoint" />
            <mxPoint x="860" y="2638.87" as="targetPoint" />
          </mxGeometry>
        </mxCell>
        <mxCell id="bPCXKUU8ZjuMoyH03GHd-123" value="use" style="edgeLabel;resizable=0;html=1;;align=center;verticalAlign=middle;" connectable="0" vertex="1" parent="bPCXKUU8ZjuMoyH03GHd-122">
          <mxGeometry relative="1" as="geometry" />
        </mxCell>
        <mxCell id="bPCXKUU8ZjuMoyH03GHd-124" value="" style="endArrow=classic;html=1;rounded=0;entryX=0.5;entryY=0;entryDx=0;entryDy=0;exitX=0.483;exitY=1.001;exitDx=0;exitDy=0;exitPerimeter=0;" edge="1" source="bPCXKUU8ZjuMoyH03GHd-118" target="bPCXKUU8ZjuMoyH03GHd-120" parent="1">
          <mxGeometry relative="1" as="geometry">
            <mxPoint x="755" y="2460" as="sourcePoint" />
            <mxPoint x="735" y="2568" as="targetPoint" />
          </mxGeometry>
        </mxCell>
        <mxCell id="bPCXKUU8ZjuMoyH03GHd-125" value="use" style="edgeLabel;resizable=0;html=1;;align=center;verticalAlign=middle;" connectable="0" vertex="1" parent="bPCXKUU8ZjuMoyH03GHd-124">
          <mxGeometry relative="1" as="geometry" />
        </mxCell>
        <mxCell id="bPCXKUU8ZjuMoyH03GHd-126" value="" style="endArrow=classic;html=1;rounded=0;entryX=0.5;entryY=0;entryDx=0;entryDy=0;exitX=0.48;exitY=1;exitDx=0;exitDy=0;exitPerimeter=0;" edge="1" source="bPCXKUU8ZjuMoyH03GHd-118" target="bPCXKUU8ZjuMoyH03GHd-121" parent="1">
          <mxGeometry relative="1" as="geometry">
            <mxPoint x="740.5899999999997" y="2562.5959999999995" as="sourcePoint" />
            <mxPoint x="860" y="2786.87" as="targetPoint" />
          </mxGeometry>
        </mxCell>
        <mxCell id="bPCXKUU8ZjuMoyH03GHd-127" value="use" style="edgeLabel;resizable=0;html=1;;align=center;verticalAlign=middle;" connectable="0" vertex="1" parent="bPCXKUU8ZjuMoyH03GHd-126">
          <mxGeometry relative="1" as="geometry" />
        </mxCell>
        <mxCell id="bPCXKUU8ZjuMoyH03GHd-128" style="edgeStyle=orthogonalEdgeStyle;rounded=0;orthogonalLoop=1;jettySize=auto;html=1;exitX=0.5;exitY=0;exitDx=0;exitDy=0;entryX=0.5;entryY=1;entryDx=0;entryDy=0;" edge="1" source="bPCXKUU8ZjuMoyH03GHd-129" target="bPCXKUU8ZjuMoyH03GHd-119" parent="1">
          <mxGeometry relative="1" as="geometry" />
        </mxCell>
        <mxCell id="bPCXKUU8ZjuMoyH03GHd-129" value="&lt;p style=&quot;margin:0px;margin-top:4px;text-align:center;&quot;&gt;&lt;span style=&quot;color: rgba(0, 0, 0, 0.85); font-family: system-ui, -apple-system, &amp;quot;Segoe UI&amp;quot;, Roboto, Ubuntu, Cantarell, &amp;quot;Noto Sans&amp;quot;, sans-serif, &amp;quot;Apple Color Emoji&amp;quot;, &amp;quot;Segoe UI Emoji&amp;quot;, &amp;quot;Segoe UI Symbol&amp;quot;, &amp;quot;Noto Color Emoji&amp;quot;, BlinkMacSystemFont, &amp;quot;Helvetica Neue&amp;quot;, Arial, &amp;quot;PingFang SC&amp;quot;, &amp;quot;PingFang TC&amp;quot;, &amp;quot;PingFang HK&amp;quot;, &amp;quot;Microsoft Yahei&amp;quot;, &amp;quot;Microsoft JhengHei&amp;quot;; font-size: 14px; text-align: left; white-space: pre; background-color: rgb(255, 255, 255);&quot;&gt;&lt;span style=&quot;background-color: transparent;&quot;&gt;DeviceAlarm&lt;/span&gt;ServiceImpl&lt;/span&gt;&lt;/p&gt;&lt;hr size=&quot;1&quot; style=&quot;border-style:solid;&quot;&gt;&lt;p style=&quot;margin:0px;margin-left:4px;&quot;&gt;&lt;span style=&quot;background-color: rgb(255, 255, 255); color: rgba(0, 0, 0, 0.85);&quot;&gt;&lt;br&gt;&lt;/span&gt;&lt;/p&gt;" style="verticalAlign=top;align=left;overflow=fill;html=1;whiteSpace=wrap;" vertex="1" parent="1">
          <mxGeometry x="450" y="2788.87" width="190" height="140" as="geometry" />
        </mxCell>
        <mxCell id="bPCXKUU8ZjuMoyH03GHd-130" style="edgeStyle=orthogonalEdgeStyle;rounded=0;orthogonalLoop=1;jettySize=auto;html=1;exitX=0.5;exitY=0;exitDx=0;exitDy=0;entryX=0.5;entryY=1;entryDx=0;entryDy=0;" edge="1" source="bPCXKUU8ZjuMoyH03GHd-131" target="bPCXKUU8ZjuMoyH03GHd-120" parent="1">
          <mxGeometry relative="1" as="geometry" />
        </mxCell>
        <mxCell id="bPCXKUU8ZjuMoyH03GHd-131" value="&lt;p style=&quot;margin:0px;margin-top:4px;text-align:center;&quot;&gt;&lt;span style=&quot;background-color: rgb(255, 255, 255); color: rgba(0, 0, 0, 0.85); font-family: system-ui, -apple-system, &amp;quot;Segoe UI&amp;quot;, Roboto, Ubuntu, Cantarell, &amp;quot;Noto Sans&amp;quot;, sans-serif, &amp;quot;Apple Color Emoji&amp;quot;, &amp;quot;Segoe UI Emoji&amp;quot;, &amp;quot;Segoe UI Symbol&amp;quot;, &amp;quot;Noto Color Emoji&amp;quot;, BlinkMacSystemFont, &amp;quot;Helvetica Neue&amp;quot;, Arial, &amp;quot;PingFang SC&amp;quot;, &amp;quot;PingFang TC&amp;quot;, &amp;quot;PingFang HK&amp;quot;, &amp;quot;Microsoft Yahei&amp;quot;, &amp;quot;Microsoft JhengHei&amp;quot;; font-size: 14px; white-space: pre; text-align: left;&quot;&gt;&lt;span style=&quot;background-color: transparent;&quot;&gt;MlcAlarm&lt;/span&gt;Impl&lt;/span&gt;&lt;/p&gt;&lt;hr size=&quot;1&quot; style=&quot;border-style:solid;&quot;&gt;&lt;p style=&quot;margin:0px;margin-left:4px;&quot;&gt;&amp;nbsp;&lt;font face=&quot;system-ui, -apple-system, Segoe UI, Roboto, Ubuntu, Cantarell, Noto Sans, sans-serif, Apple Color Emoji, Segoe UI Emoji, Segoe UI Symbol, Noto Color Emoji, BlinkMacSystemFont, Helvetica Neue, Arial, PingFang SC, PingFang TC, PingFang HK, Microsoft Yahei, Microsoft JhengHei&quot;&gt;&lt;span style=&quot;font-size: 14px; white-space: pre;&quot;&gt;+ getMaintainDetailById&lt;br&gt;+ groupCountStatus&lt;/span&gt;&lt;/font&gt;&lt;/p&gt;" style="verticalAlign=top;align=left;overflow=fill;html=1;whiteSpace=wrap;" vertex="1" parent="1">
          <mxGeometry x="670" y="2788.87" width="190" height="140" as="geometry" />
        </mxCell>
        <mxCell id="bPCXKUU8ZjuMoyH03GHd-132" style="edgeStyle=orthogonalEdgeStyle;rounded=0;orthogonalLoop=1;jettySize=auto;html=1;exitX=0.5;exitY=0;exitDx=0;exitDy=0;entryX=0.5;entryY=1;entryDx=0;entryDy=0;" edge="1" source="bPCXKUU8ZjuMoyH03GHd-133" target="bPCXKUU8ZjuMoyH03GHd-121" parent="1">
          <mxGeometry relative="1" as="geometry" />
        </mxCell>
        <mxCell id="bPCXKUU8ZjuMoyH03GHd-133" value="&lt;p style=&quot;margin:0px;margin-top:4px;text-align:center;&quot;&gt;&lt;span style=&quot;color: rgba(0, 0, 0, 0.85); font-family: system-ui, -apple-system, &amp;quot;Segoe UI&amp;quot;, Roboto, Ubuntu, Cantarell, &amp;quot;Noto Sans&amp;quot;, sans-serif, &amp;quot;Apple Color Emoji&amp;quot;, &amp;quot;Segoe UI Emoji&amp;quot;, &amp;quot;Segoe UI Symbol&amp;quot;, &amp;quot;Noto Color Emoji&amp;quot;, BlinkMacSystemFont, &amp;quot;Helvetica Neue&amp;quot;, Arial, &amp;quot;PingFang SC&amp;quot;, &amp;quot;PingFang TC&amp;quot;, &amp;quot;PingFang HK&amp;quot;, &amp;quot;Microsoft Yahei&amp;quot;, &amp;quot;Microsoft JhengHei&amp;quot;; font-size: 14px; text-align: left; white-space: pre; background-color: rgb(255, 255, 255);&quot;&gt;&lt;span style=&quot;background-color: transparent;&quot;&gt;MlcAlarmIgnore&lt;/span&gt;Service&lt;/span&gt;&lt;span style=&quot;background-color: rgb(255, 255, 255); color: rgba(0, 0, 0, 0.85); font-family: system-ui, -apple-system, &amp;quot;Segoe UI&amp;quot;, Roboto, Ubuntu, Cantarell, &amp;quot;Noto Sans&amp;quot;, sans-serif, &amp;quot;Apple Color Emoji&amp;quot;, &amp;quot;Segoe UI Emoji&amp;quot;, &amp;quot;Segoe UI Symbol&amp;quot;, &amp;quot;Noto Color Emoji&amp;quot;, BlinkMacSystemFont, &amp;quot;Helvetica Neue&amp;quot;, Arial, &amp;quot;PingFang SC&amp;quot;, &amp;quot;PingFang TC&amp;quot;, &amp;quot;PingFang HK&amp;quot;, &amp;quot;Microsoft Yahei&amp;quot;, &amp;quot;Microsoft JhengHei&amp;quot;; font-size: 14px; white-space: pre; text-align: left;&quot;&gt;Impl&lt;/span&gt;&lt;/p&gt;&lt;hr size=&quot;1&quot; style=&quot;border-style:solid;&quot;&gt;&lt;p style=&quot;margin:0px;margin-left:4px;&quot;&gt;&lt;/p&gt;&lt;p style=&quot;margin:0px;margin-left:4px;&quot;&gt;&amp;nbsp;&lt;font face=&quot;system-ui, -apple-system, Segoe UI, Roboto, Ubuntu, Cantarell, Noto Sans, sans-serif, Apple Color Emoji, Segoe UI Emoji, Segoe UI Symbol, Noto Color Emoji, BlinkMacSystemFont, Helvetica Neue, Arial, PingFang SC, PingFang TC, PingFang HK, Microsoft Yahei, Microsoft JhengHei&quot; color=&quot;rgba(0, 0, 0, 0.85)&quot;&gt;&lt;span style=&quot;font-size: 14px; white-space: pre;&quot;&gt;+ getRepairDetailById&lt;br/&gt;+ getRepairDealById&lt;br/&gt;+ getRepairAcceptanceById&lt;br/&gt;+ getInspectDetailById&lt;/span&gt;&lt;/font&gt;&lt;/p&gt;" style="verticalAlign=top;align=left;overflow=fill;html=1;whiteSpace=wrap;" vertex="1" parent="1">
          <mxGeometry x="880" y="2788.87" width="190" height="140" as="geometry" />
        </mxCell>
        <mxCell id="bPCXKUU8ZjuMoyH03GHd-134" style="edgeStyle=orthogonalEdgeStyle;rounded=0;orthogonalLoop=1;jettySize=auto;html=1;exitX=0.5;exitY=0;exitDx=0;exitDy=0;" edge="1" source="bPCXKUU8ZjuMoyH03GHd-135" target="bPCXKUU8ZjuMoyH03GHd-129" parent="1">
          <mxGeometry relative="1" as="geometry" />
        </mxCell>
        <mxCell id="bPCXKUU8ZjuMoyH03GHd-135" value="&lt;p style=&quot;margin:0px;margin-top:4px;text-align:center;&quot;&gt;&lt;i&gt;&amp;lt;&amp;lt;Interface&amp;gt;&amp;gt;&lt;/i&gt;&lt;/p&gt;&lt;p style=&quot;margin:0px;margin-top:4px;text-align:center;&quot;&gt;&lt;span style=&quot;color: rgba(0, 0, 0, 0.85); font-family: system-ui, -apple-system, &amp;quot;Segoe UI&amp;quot;, Roboto, Ubuntu, Cantarell, &amp;quot;Noto Sans&amp;quot;, sans-serif, &amp;quot;Apple Color Emoji&amp;quot;, &amp;quot;Segoe UI Emoji&amp;quot;, &amp;quot;Segoe UI Symbol&amp;quot;, &amp;quot;Noto Color Emoji&amp;quot;, BlinkMacSystemFont, &amp;quot;Helvetica Neue&amp;quot;, Arial, &amp;quot;PingFang SC&amp;quot;, &amp;quot;PingFang TC&amp;quot;, &amp;quot;PingFang HK&amp;quot;, &amp;quot;Microsoft Yahei&amp;quot;, &amp;quot;Microsoft JhengHei&amp;quot;; font-size: 14px; text-align: left; white-space: pre; background-color: rgb(255, 255, 255);&quot;&gt;&lt;span style=&quot;background-color: transparent;&quot;&gt;DeviceAlarm&lt;/span&gt;Mapper&lt;/span&gt;&lt;/p&gt;&lt;hr size=&quot;1&quot; style=&quot;border-style:solid;&quot;&gt;&lt;p style=&quot;margin:0px;margin-left:4px;&quot;&gt;&lt;span style=&quot;background-color: rgb(255, 255, 255); color: rgba(0, 0, 0, 0.85);&quot;&gt;&lt;br&gt;&lt;br&gt;&lt;/span&gt;&lt;/p&gt;" style="verticalAlign=top;align=left;overflow=fill;html=1;whiteSpace=wrap;" vertex="1" parent="1">
          <mxGeometry x="450" y="2968.87" width="190" height="140" as="geometry" />
        </mxCell>
        <mxCell id="bPCXKUU8ZjuMoyH03GHd-136" style="edgeStyle=orthogonalEdgeStyle;rounded=0;orthogonalLoop=1;jettySize=auto;html=1;exitX=0.5;exitY=0;exitDx=0;exitDy=0;entryX=0.5;entryY=1;entryDx=0;entryDy=0;" edge="1" source="bPCXKUU8ZjuMoyH03GHd-137" target="bPCXKUU8ZjuMoyH03GHd-131" parent="1">
          <mxGeometry relative="1" as="geometry" />
        </mxCell>
        <mxCell id="bPCXKUU8ZjuMoyH03GHd-137" value="&lt;p style=&quot;margin:0px;margin-top:4px;text-align:center;&quot;&gt;&lt;i&gt;&amp;lt;&amp;lt;Interface&amp;gt;&amp;gt;&lt;/i&gt;&lt;/p&gt;&lt;p style=&quot;margin:0px;margin-top:4px;text-align:center;&quot;&gt;&lt;span style=&quot;background-color: rgb(255, 255, 255); color: rgba(0, 0, 0, 0.85); font-family: system-ui, -apple-system, &amp;quot;Segoe UI&amp;quot;, Roboto, Ubuntu, Cantarell, &amp;quot;Noto Sans&amp;quot;, sans-serif, &amp;quot;Apple Color Emoji&amp;quot;, &amp;quot;Segoe UI Emoji&amp;quot;, &amp;quot;Segoe UI Symbol&amp;quot;, &amp;quot;Noto Color Emoji&amp;quot;, BlinkMacSystemFont, &amp;quot;Helvetica Neue&amp;quot;, Arial, &amp;quot;PingFang SC&amp;quot;, &amp;quot;PingFang TC&amp;quot;, &amp;quot;PingFang HK&amp;quot;, &amp;quot;Microsoft Yahei&amp;quot;, &amp;quot;Microsoft JhengHei&amp;quot;; font-size: 14px; white-space: pre; text-align: left;&quot;&gt;&lt;span style=&quot;background-color: transparent;&quot;&gt;MlcAlarm&lt;/span&gt;Mapper&lt;/span&gt;&lt;/p&gt;&lt;hr size=&quot;1&quot; style=&quot;border-style:solid;&quot;&gt;&lt;p style=&quot;margin:0px;margin-left:4px;&quot;&gt;&lt;br&gt;&lt;/p&gt;" style="verticalAlign=top;align=left;overflow=fill;html=1;whiteSpace=wrap;" vertex="1" parent="1">
          <mxGeometry x="670" y="2968.87" width="190" height="140" as="geometry" />
        </mxCell>
        <mxCell id="bPCXKUU8ZjuMoyH03GHd-138" style="edgeStyle=orthogonalEdgeStyle;rounded=0;orthogonalLoop=1;jettySize=auto;html=1;exitX=0.5;exitY=0;exitDx=0;exitDy=0;" edge="1" source="bPCXKUU8ZjuMoyH03GHd-139" target="bPCXKUU8ZjuMoyH03GHd-133" parent="1">
          <mxGeometry relative="1" as="geometry" />
        </mxCell>
        <mxCell id="bPCXKUU8ZjuMoyH03GHd-139" value="&lt;p style=&quot;margin:0px;margin-top:4px;text-align:center;&quot;&gt;&lt;i&gt;&amp;lt;&amp;lt;Interface&amp;gt;&amp;gt;&lt;/i&gt;&lt;/p&gt;&lt;p style=&quot;margin:0px;margin-top:4px;text-align:center;&quot;&gt;&lt;span style=&quot;color: rgba(0, 0, 0, 0.85); font-family: system-ui, -apple-system, &amp;quot;Segoe UI&amp;quot;, Roboto, Ubuntu, Cantarell, &amp;quot;Noto Sans&amp;quot;, sans-serif, &amp;quot;Apple Color Emoji&amp;quot;, &amp;quot;Segoe UI Emoji&amp;quot;, &amp;quot;Segoe UI Symbol&amp;quot;, &amp;quot;Noto Color Emoji&amp;quot;, BlinkMacSystemFont, &amp;quot;Helvetica Neue&amp;quot;, Arial, &amp;quot;PingFang SC&amp;quot;, &amp;quot;PingFang TC&amp;quot;, &amp;quot;PingFang HK&amp;quot;, &amp;quot;Microsoft Yahei&amp;quot;, &amp;quot;Microsoft JhengHei&amp;quot;; font-size: 14px; text-align: left; white-space: pre; background-color: rgb(255, 255, 255);&quot;&gt;&lt;span style=&quot;background-color: transparent;&quot;&gt;MlcAlarmIgnore&lt;/span&gt;&lt;/span&gt;&lt;span style=&quot;background-color: rgb(255, 255, 255); color: rgba(0, 0, 0, 0.85); font-family: system-ui, -apple-system, &amp;quot;Segoe UI&amp;quot;, Roboto, Ubuntu, Cantarell, &amp;quot;Noto Sans&amp;quot;, sans-serif, &amp;quot;Apple Color Emoji&amp;quot;, &amp;quot;Segoe UI Emoji&amp;quot;, &amp;quot;Segoe UI Symbol&amp;quot;, &amp;quot;Noto Color Emoji&amp;quot;, BlinkMacSystemFont, &amp;quot;Helvetica Neue&amp;quot;, Arial, &amp;quot;PingFang SC&amp;quot;, &amp;quot;PingFang TC&amp;quot;, &amp;quot;PingFang HK&amp;quot;, &amp;quot;Microsoft Yahei&amp;quot;, &amp;quot;Microsoft JhengHei&amp;quot;; font-size: 14px; white-space: pre; text-align: left;&quot;&gt;Mapper&lt;/span&gt;&lt;/p&gt;&lt;hr size=&quot;1&quot; style=&quot;border-style:solid;&quot;&gt;&lt;p style=&quot;margin:0px;margin-left:4px;&quot;&gt;&lt;br&gt;&lt;/p&gt;" style="verticalAlign=top;align=left;overflow=fill;html=1;whiteSpace=wrap;" vertex="1" parent="1">
          <mxGeometry x="880" y="2968.87" width="190" height="140" as="geometry" />
        </mxCell>
      </root>
    </mxGraphModel>
  </diagram>
</mxfile>
